<svg id="Capa_1" data-name="Capa 1" xmlns="http://www.w3.org/2000/svg" viewBox="0 0 239.8 45.68"><defs><style>.cls-1{fill:#25d366;}.cls-2{fill:#fff;}</style></defs><title>Boton wa 1</title><path class="cls-1" d="M19.83,0H217A22.84,22.84,0,0,1,239.8,22.84v0A22.84,22.84,0,0,1,217,45.68H0a0,0,0,0,1,0,0V19.83A19.83,19.83,0,0,1,19.83,0Z"/><path class="cls-2" d="M14,35c.39-1.42.75-2.76,1.12-4.1.18-.68.39-1.36.54-2a.94.94,0,0,0-.07-.62A12.37,12.37,0,0,1,15,17.56a12.15,12.15,0,0,1,5.9-6.41,12,12,0,0,1,6.89-1.32,12.29,12.29,0,0,1,9.32,5.7,11.83,11.83,0,0,1,1.93,8,12.14,12.14,0,0,1-6.91,10,12.13,12.13,0,0,1-11.21,0,1.11,1.11,0,0,0-.72,0c-2,.49-3.91,1-5.87,1.52Zm3-3c1.2-.32,2.31-.6,3.42-.91a1.12,1.12,0,0,1,.94.12A10.37,10.37,0,0,0,34.54,29,10.54,10.54,0,0,0,35.8,17.37,10.37,10.37,0,0,0,25.05,12,10,10,0,0,0,17,18.51a10.13,10.13,0,0,0,.85,9.37,1.09,1.09,0,0,1,.12.75C17.65,29.75,17.33,30.85,17,32.07Z" transform="translate(0 0)"/><path class="cls-1" d="M17,32.07c.33-1.22.65-2.32.93-3.44a1.09,1.09,0,0,0-.12-.75A10.13,10.13,0,0,1,17,18.51,10,10,0,0,1,25.05,12,10.37,10.37,0,0,1,35.8,17.37,10.54,10.54,0,0,1,34.54,29a10.37,10.37,0,0,1-13.18,2.24,1.12,1.12,0,0,0-.94-.12C19.31,31.47,18.2,31.75,17,32.07Zm5.58-15.54a1.38,1.38,0,0,0-1.34.49,3.66,3.66,0,0,0-.45,4.47,13.06,13.06,0,0,0,7.82,6.64,3.69,3.69,0,0,0,3.54-.61,2.32,2.32,0,0,0,.81-2,.57.57,0,0,0-.28-.4c-.82-.42-1.67-.81-2.5-1.22a.53.53,0,0,0-.72.19c-.27.36-.57.7-.84,1.06a.64.64,0,0,1-.88.19,8.49,8.49,0,0,1-3.81-3.12c-.56-.82-.57-.81.06-1.54l.32-.42a.91.91,0,0,0,.11-1c-.3-.67-.58-1.36-.85-2C23.37,16.74,23.1,16.4,22.58,16.53Z" transform="translate(0 0)"/><path class="cls-2" d="M22.58,16.53c.52-.13.79.21,1,.69.27.68.55,1.37.85,2a.91.91,0,0,1-.11,1l-.32.42c-.63.73-.62.72-.06,1.54a8.49,8.49,0,0,0,3.81,3.12.64.64,0,0,0,.88-.19c.27-.36.57-.7.84-1.06a.53.53,0,0,1,.72-.19c.83.41,1.68.8,2.5,1.22a.57.57,0,0,1,.28.4,2.32,2.32,0,0,1-.81,2,3.69,3.69,0,0,1-3.54.61,13.06,13.06,0,0,1-7.82-6.64A3.66,3.66,0,0,1,21.24,17,1.38,1.38,0,0,1,22.58,16.53Z" transform="translate(0 0)"/><path class="cls-2" d="M47.91,22.69a4.8,4.8,0,0,1-.25,1.77,4.64,4.64,0,0,1-1,1.33,7.75,7.75,0,0,0-.9,1.27,2.63,2.63,0,0,0-.33,1.31,2,2,0,0,0,.38,1.3,1.31,1.31,0,0,0,1.09.46,1.38,1.38,0,0,0,1-.4,1.56,1.56,0,0,0,.44-1.16H50l0,.05a3.17,3.17,0,0,1-.88,2.4,3.13,3.13,0,0,1-2.27.85A3.06,3.06,0,0,1,44.5,31a3.65,3.65,0,0,1-.85-2.55,4.07,4.07,0,0,1,.53-2,7.12,7.12,0,0,1,1.35-1.72,1.94,1.94,0,0,0,.51-.81,4.14,4.14,0,0,0,.12-1.15Zm-1.78-3.56h1.79v2H46.13Z" transform="translate(0 0)"/><path class="cls-2" d="M59.17,24.36l0,.05a4.32,4.32,0,0,1-1,3.07,3.68,3.68,0,0,1-2.87,1.17,3.59,3.59,0,0,1-3-1.48,6,6,0,0,1-1.14-3.78V21a6.09,6.09,0,0,1,1.13-3.78,3.5,3.5,0,0,1,2.94-1.49,3.79,3.79,0,0,1,2.92,1.13,4.2,4.2,0,0,1,1,3.1V20h-1.7a2.91,2.91,0,0,0-.57-1.93,2.07,2.07,0,0,0-1.68-.67,1.93,1.93,0,0,0-1.7,1A4.89,4.89,0,0,0,52.91,21v2.41A4.69,4.69,0,0,0,53.55,26a2,2,0,0,0,1.73,1,2,2,0,0,0,1.64-.68,3,3,0,0,0,.56-1.94Z" transform="translate(0 0)"/><path class="cls-2" d="M60.37,23.71a5.72,5.72,0,0,1,1-3.42,3.25,3.25,0,0,1,5.26,0,5.72,5.72,0,0,1,1,3.42v.18a5.74,5.74,0,0,1-1,3.44,3.27,3.27,0,0,1-5.26,0,5.71,5.71,0,0,1-1-3.43Zm1.76.18a4.78,4.78,0,0,0,.45,2.23,1.54,1.54,0,0,0,2.76,0,4.68,4.68,0,0,0,.46-2.23v-.18a4.63,4.63,0,0,0-.46-2.2A1.48,1.48,0,0,0,64,20.64a1.46,1.46,0,0,0-1.37.87,4.76,4.76,0,0,0-.45,2.2Z" transform="translate(0 0)"/><path class="cls-2" d="M70.69,19.13l.09,1.22a2.9,2.9,0,0,1,1-1A2.52,2.52,0,0,1,73.08,19a2.12,2.12,0,0,1,1.32.42,2.51,2.51,0,0,1,.82,1.24,3,3,0,0,1,1-1.21A2.2,2.2,0,0,1,77.56,19a2.16,2.16,0,0,1,1.87,1,5.24,5.24,0,0,1,.68,3v5.57H78.35V22.89A3.17,3.17,0,0,0,78,21.17a1.17,1.17,0,0,0-1-.5A1.33,1.33,0,0,0,76,21a2.06,2.06,0,0,0-.56,1,1.62,1.62,0,0,0,0,.23c0,.06,0,.12,0,.18v6H73.72V22.89a3.17,3.17,0,0,0-.35-1.7,1.19,1.19,0,0,0-1-.52,1.65,1.65,0,0,0-.91.25,1.74,1.74,0,0,0-.59.69v6.86H69.08V19.13Z" transform="translate(0 0)"/><path class="cls-2" d="M81.64,23.71a5.71,5.71,0,0,1,1-3.42,3.26,3.26,0,0,1,5.27,0,5.71,5.71,0,0,1,1,3.42v.18a5.74,5.74,0,0,1-1,3.44,3.28,3.28,0,0,1-5.27,0,5.7,5.7,0,0,1-1-3.43Zm1.75.18a4.78,4.78,0,0,0,.45,2.23,1.48,1.48,0,0,0,1.39.86,1.49,1.49,0,0,0,1.38-.86,4.8,4.8,0,0,0,.46-2.23v-.18a4.75,4.75,0,0,0-.46-2.2,1.49,1.49,0,0,0-1.4-.87,1.47,1.47,0,0,0-1.37.87,4.76,4.76,0,0,0-.45,2.2Z" transform="translate(0 0)"/><path class="cls-2" d="M100.89,24.11a6,6,0,0,1-.8,3.29,2.51,2.51,0,0,1-2.24,1.25,2.42,2.42,0,0,1-1.18-.28,2.6,2.6,0,0,1-.88-.84v4.53H94V19.13h1.49l.17,1.17a2.77,2.77,0,0,1,.91-1A2.19,2.19,0,0,1,97.83,19a2.5,2.5,0,0,1,2.25,1.37,7.07,7.07,0,0,1,.81,3.61Zm-1.75-.18a5.32,5.32,0,0,0-.45-2.35,1.45,1.45,0,0,0-1.35-.91,1.55,1.55,0,0,0-.93.28,2,2,0,0,0-.62.79V26a1.79,1.79,0,0,0,.62.75,1.58,1.58,0,0,0,.94.27,1.47,1.47,0,0,0,1.35-.79,4.31,4.31,0,0,0,.44-2.08Z" transform="translate(0 0)"/><path class="cls-2" d="M102.1,23.71a5.78,5.78,0,0,1,1-3.42,3.26,3.26,0,0,1,5.27,0,5.72,5.72,0,0,1,1,3.42v.18a5.74,5.74,0,0,1-1,3.44,3.28,3.28,0,0,1-5.27,0,5.77,5.77,0,0,1-1-3.43Zm1.75.18a4.78,4.78,0,0,0,.45,2.23,1.48,1.48,0,0,0,1.39.86,1.49,1.49,0,0,0,1.38-.86,4.8,4.8,0,0,0,.46-2.23v-.18a4.75,4.75,0,0,0-.46-2.2,1.49,1.49,0,0,0-1.39-.87,1.45,1.45,0,0,0-1.37.87,4.63,4.63,0,0,0-.46,2.2Z" transform="translate(0 0)"/><path class="cls-2" d="M110.48,23.93a7.07,7.07,0,0,1,.81-3.61A2.49,2.49,0,0,1,113.54,19a2.16,2.16,0,0,1,1.14.31,2.71,2.71,0,0,1,.87.88V15h1.76V28.47h-1.42l-.21-1.18a2.92,2.92,0,0,1-.92,1,2.12,2.12,0,0,1-1.23.35,2.5,2.5,0,0,1-2.24-1.25,6,6,0,0,1-.81-3.29Zm1.76.18a4.3,4.3,0,0,0,.42,2.06,1.37,1.37,0,0,0,1.32.77,1.54,1.54,0,0,0,.94-.28,2,2,0,0,0,.63-.81V21.77a2.08,2.08,0,0,0-.63-.81,1.54,1.54,0,0,0-.93-.29,1.38,1.38,0,0,0-1.32.91,5.42,5.42,0,0,0-.43,2.35Z" transform="translate(0 0)"/><path class="cls-2" d="M122.52,28.65a3.15,3.15,0,0,1-2.68-1.29,5.38,5.38,0,0,1-1-3.34v-.35a5.6,5.6,0,0,1,1-3.39A2.93,2.93,0,0,1,122.33,19a2.71,2.71,0,0,1,2.38,1.17,5.32,5.32,0,0,1,.81,3.1v1.13h-4.83l0,0a3.46,3.46,0,0,0,.51,1.86,1.62,1.62,0,0,0,1.44.72,3.35,3.35,0,0,0,1.24-.21,3.4,3.4,0,0,0,1-.6l.57,1.38a3.52,3.52,0,0,1-1.19.78A4.08,4.08,0,0,1,122.52,28.65Zm-.19-8a1.28,1.28,0,0,0-1.1.59,3.23,3.23,0,0,0-.52,1.54l0,0h3.06v-.16a2.71,2.71,0,0,0-.35-1.45A1.21,1.21,0,0,0,122.33,20.64Z" transform="translate(0 0)"/><path class="cls-2" d="M128.55,19.13l.1,1.22a2.73,2.73,0,0,1,1-1A2.47,2.47,0,0,1,131,19a2.08,2.08,0,0,1,1.31.42,2.52,2.52,0,0,1,.83,1.24A3.08,3.08,0,0,1,134,19.4a2.25,2.25,0,0,1,1.39-.45,2.14,2.14,0,0,1,1.86,1,5.16,5.16,0,0,1,.68,3v5.57h-1.75V22.89a3.16,3.16,0,0,0-.35-1.72,1.17,1.17,0,0,0-1-.5,1.32,1.32,0,0,0-1,.37,2.07,2.07,0,0,0-.57,1c0,.09,0,.16,0,.23a1.09,1.09,0,0,1,0,.18v6h-1.76V22.89a3.08,3.08,0,0,0-.35-1.7,1.18,1.18,0,0,0-1-.52,1.65,1.65,0,0,0-.91.25,1.82,1.82,0,0,0-.59.69v6.86H127V19.13Z" transform="translate(0 0)"/><path class="cls-2" d="M139.5,23.71a5.72,5.72,0,0,1,1-3.42,3.25,3.25,0,0,1,5.26,0,5.72,5.72,0,0,1,1,3.42v.18a5.74,5.74,0,0,1-1,3.44,3.27,3.27,0,0,1-5.26,0,5.71,5.71,0,0,1-1-3.43Zm1.76.18a4.91,4.91,0,0,0,.44,2.23,1.55,1.55,0,0,0,2.77,0,4.68,4.68,0,0,0,.46-2.23v-.18a4.63,4.63,0,0,0-.46-2.2,1.49,1.49,0,0,0-1.39-.87,1.46,1.46,0,0,0-1.37.87,4.76,4.76,0,0,0-.45,2.2Z" transform="translate(0 0)"/><path class="cls-2" d="M152.61,25.92a1,1,0,0,0-.35-.8,3.2,3.2,0,0,0-1.29-.57,4.72,4.72,0,0,1-2.11-1,2.26,2.26,0,0,1-.74-1.76,2.71,2.71,0,0,1,.84-2,2.93,2.93,0,0,1,2.19-.84,3.07,3.07,0,0,1,2.26.86,2.74,2.74,0,0,1,.82,2.07l0,.05h-1.68a1.4,1.4,0,0,0-.38-1,1.47,1.47,0,0,0-2-.08,1.18,1.18,0,0,0-.33.85,1,1,0,0,0,.31.76,3,3,0,0,0,1.28.51,4.93,4.93,0,0,1,2.17,1,2.35,2.35,0,0,1,.73,1.79,2.63,2.63,0,0,1-.88,2.06,3.21,3.21,0,0,1-2.29.8,3.16,3.16,0,0,1-2.41-.93,2.86,2.86,0,0,1-.84-2.14l0,0h1.63a1.5,1.5,0,0,0,.49,1.18,1.75,1.75,0,0,0,1.13.37,1.59,1.59,0,0,0,1.05-.32A1.07,1.07,0,0,0,152.61,25.92Z" transform="translate(0 0)"/><path class="cls-2" d="M164.31,28.47q-.09-.34-.15-.69c0-.22-.07-.45-.09-.67a3.32,3.32,0,0,1-.94,1.1,2.15,2.15,0,0,1-1.33.44,2.34,2.34,0,0,1-1.87-.75,3,3,0,0,1-.66-2.06,2.59,2.59,0,0,1,.9-2.11,3.77,3.77,0,0,1,2.52-.76h1.37v-.82A1.7,1.7,0,0,0,163.7,21a1.51,1.51,0,0,0-2-.07,1.15,1.15,0,0,0-.35.88h-1.7v-.05a2.48,2.48,0,0,1,.82-2,3.16,3.16,0,0,1,2.29-.86,3,3,0,0,1,2.21.83,3.22,3.22,0,0,1,.84,2.39v4.15a9.79,9.79,0,0,0,.06,1.11,9.12,9.12,0,0,0,.21,1ZM162.17,27a1.94,1.94,0,0,0,1.19-.4,2,2,0,0,0,.7-.9V24.28h-1.39a1.57,1.57,0,0,0-1.21.46A1.51,1.51,0,0,0,161,25.8a1.22,1.22,0,0,0,.29.85A1.12,1.12,0,0,0,162.17,27Z" transform="translate(0 0)"/><path class="cls-2" d="M170.14,24.72l.17.94h.05l1.71-6.53H174l-3.23,10.76a5,5,0,0,1-.88,1.66,2.09,2.09,0,0,1-2.06.64,3.37,3.37,0,0,1-.48-.12l.19-1.62.27,0h.26a.89.89,0,0,0,.76-.39,3.42,3.42,0,0,0,.47-.89l.29-.85-2.84-9.23h1.91Z" transform="translate(0 0)"/><path class="cls-2" d="M179.93,27.09a3,3,0,0,1-.93,1.16,2.19,2.19,0,0,1-1.31.4,2.3,2.3,0,0,1-2-1,5.33,5.33,0,0,1-.71-3.07V19.13h1.75v5.48a3.6,3.6,0,0,0,.33,1.84,1.12,1.12,0,0,0,1,.49,2,2,0,0,0,1.07-.27,1.81,1.81,0,0,0,.67-.79V19.13h1.76v9.34h-1.51Z" transform="translate(0 0)"/><path class="cls-2" d="M183.11,23.93a7.18,7.18,0,0,1,.8-3.61A2.51,2.51,0,0,1,186.17,19a2.21,2.21,0,0,1,1.14.31,2.81,2.81,0,0,1,.87.88V15h1.76V28.47h-1.43l-.21-1.18a2.81,2.81,0,0,1-.91,1,2.14,2.14,0,0,1-1.23.35,2.53,2.53,0,0,1-2.25-1.25,6,6,0,0,1-.8-3.29Zm1.76.18a4.43,4.43,0,0,0,.41,2.06,1.39,1.39,0,0,0,1.32.77,1.55,1.55,0,0,0,1-.28,2,2,0,0,0,.63-.81V21.77a2.1,2.1,0,0,0-.64-.81,1.51,1.51,0,0,0-.92-.29,1.38,1.38,0,0,0-1.32.91,5.42,5.42,0,0,0-.43,2.35Z" transform="translate(0 0)"/><path class="cls-2" d="M196.54,28.47c-.06-.23-.12-.46-.16-.69a5.1,5.1,0,0,1-.08-.67,3.35,3.35,0,0,1-1,1.1,2.1,2.1,0,0,1-1.32.44,2.38,2.38,0,0,1-1.88-.75,3.06,3.06,0,0,1-.65-2.06,2.59,2.59,0,0,1,.9-2.11,3.74,3.74,0,0,1,2.52-.76h1.37v-.82a1.7,1.7,0,0,0-.36-1.15,1.33,1.33,0,0,0-1-.41,1.29,1.29,0,0,0-.95.34,1.16,1.16,0,0,0-.36.88h-1.69v-.05a2.49,2.49,0,0,1,.83-2A3.16,3.16,0,0,1,195,19a3,3,0,0,1,2.2.83,3.22,3.22,0,0,1,.84,2.39v4.15a7.87,7.87,0,0,0,.07,1.11,6.18,6.18,0,0,0,.21,1ZM194.39,27a1.9,1.9,0,0,0,1.19-.4,1.93,1.93,0,0,0,.71-.9V24.28h-1.4a1.56,1.56,0,0,0-1.2.46,1.46,1.46,0,0,0-.43,1.06,1.17,1.17,0,0,0,.29.85A1.09,1.09,0,0,0,194.39,27Z" transform="translate(0 0)"/><path class="cls-2" d="M203.78,21,203,21a1.39,1.39,0,0,0-.85.26,1.64,1.64,0,0,0-.53.74v6.49h-1.76V19.13h1.6l.12,1.35a3,3,0,0,1,.76-1.12,1.6,1.6,0,0,1,1.08-.41.92.92,0,0,1,.29,0l.26.07Z" transform="translate(0 0)"/><path class="cls-2" d="M207.45,16.86v2.27h1.4v1.55h-1.4v5.17a1.26,1.26,0,0,0,.21.82.68.68,0,0,0,.56.25,1.33,1.33,0,0,0,.28,0,1.14,1.14,0,0,0,.26-.09l.19,1.54a1.66,1.66,0,0,1-.54.23,2.2,2.2,0,0,1-.64.08,1.86,1.86,0,0,1-1.52-.67,3.37,3.37,0,0,1-.55-2.13V20.68h-1.19V19.13h1.19V16.86Z" transform="translate(0 0)"/><path class="cls-2" d="M213.59,28.65a3.16,3.16,0,0,1-2.68-1.29,5.45,5.45,0,0,1-1-3.34v-.35a5.67,5.67,0,0,1,1-3.39A2.93,2.93,0,0,1,213.4,19a2.72,2.72,0,0,1,2.39,1.17,5.32,5.32,0,0,1,.8,3.1v1.13h-4.83l0,0a3.46,3.46,0,0,0,.51,1.86,1.62,1.62,0,0,0,1.44.72,3.32,3.32,0,0,0,1.24-.21,3.4,3.4,0,0,0,1-.6l.57,1.38a3.57,3.57,0,0,1-1.18.78A4.16,4.16,0,0,1,213.59,28.65Zm-.19-8a1.29,1.29,0,0,0-1.1.59,3.34,3.34,0,0,0-.51,1.54v0h3.06v-.16a2.71,2.71,0,0,0-.35-1.45A1.19,1.19,0,0,0,213.4,20.64Z" transform="translate(0 0)"/><path class="cls-2" d="M219.55,24.91a5.06,5.06,0,0,1,.24-1.76,5.08,5.08,0,0,1,1-1.34,7.49,7.49,0,0,0,.89-1.25,2.63,2.63,0,0,0,.34-1.33,2,2,0,0,0-.38-1.3,1.33,1.33,0,0,0-1.08-.46,1.44,1.44,0,0,0-1,.39,1.51,1.51,0,0,0-.42,1.16h-1.69l0-.05a3,3,0,0,1,3.16-3.25,3.05,3.05,0,0,1,2.37.92,3.68,3.68,0,0,1,.84,2.57,4,4,0,0,1-.53,2A7.49,7.49,0,0,1,221.93,23a2.06,2.06,0,0,0-.52.82,4.72,4.72,0,0,0-.1,1.14Zm1.79,3.56h-1.79v-2h1.79Z" transform="translate(0 0)"/></svg>