<svg id="Capa_1" data-name="Capa 1" xmlns="http://www.w3.org/2000/svg" viewBox="0 0 212.34 40.88"><defs><style>.cls-1{opacity:0.7;}.cls-2{fill:#fff;}</style></defs><title>BW</title><g class="cls-1"><path class="cls-2" d="M44.14,15.23a2.9,2.9,0,0,1,2.48-3A3,3,0,0,1,50,14a8.92,8.92,0,0,1,.86,3.12,26.28,26.28,0,0,1-3,14.32,8.89,8.89,0,0,1-8.77,5c-1.46-.07-2.07-.59-2.21-2s-.4-2.59-.7-4.46l-.91,1.79c-1.61,3.26-4.46,5-7.79,4.55-.54-.07-1.36-.61-1.44-1.05-1.35-7.44-2.59-14.91-3.9-22.61,1.63,0,3.12-.08,4.59.05.34,0,.84.7.91,1.14.87,5.5,1.66,11,2.51,16.51.09.57.45,1.59.63,1.58a3.4,3.4,0,0,0,2.17-.7,8.49,8.49,0,0,0,2.24-7c-.56-3.79-1.25-7.57-1.93-11.62,1.62,0,3.1-.07,4.57.05.35,0,.85.7.92,1.12.87,5.56,1.66,11.13,2.52,16.68A7.1,7.1,0,0,0,42,32.19c.71-.29,1.83-.4,2.07-.92a35.89,35.89,0,0,0,2.68-7,23,23,0,0,0,.15-6C46.84,16.63,46.19,15.27,44.14,15.23Z" transform="translate(-2.83 -3.98)"/><path class="cls-2" d="M16.49,22.42c.48.2.77.34,1.07.45,2.46.92,4.16,2.46,4.32,5.23a6.74,6.74,0,0,1-3.77,6.64c-3.55,2-7.45,1.82-11.32,1.56S2.87,36,2.87,32.12c0-5.85,0-11.7,0-17.55,0-1.31.39-1.86,1.72-1.88,3-.07,6-.26,9-.31a7.53,7.53,0,0,1,2.37.45c2,.63,3.73,1.7,4.07,4s-.88,3.8-2.7,5A9.72,9.72,0,0,0,16.49,22.42ZM8,28.91a21.51,21.51,0,0,1,0,2.41c-.21,1.65.44,2.36,2.11,2.12.34,0,.7,0,1,0,3.06-.16,5.19-2.17,5.2-4.91s-1.93-4.2-5.22-4.28c-3.06-.08-3.11,0-3.11,3C8,27.77,8,28.34,8,28.91Zm0-6.22a8.4,8.4,0,0,0,5.92-1.86c2.15-1.87,1.59-4.66-1.15-5.44a14.61,14.61,0,0,0-3.92-.3,1.19,1.19,0,0,0-.81.83C8,18.14,8,20.35,8,22.69Z" transform="translate(-2.83 -3.98)"/><path class="cls-2" d="M125.3,12.87a3.7,3.7,0,0,1,.56-.19c3.36-.26,3.36-.26,3.84,3.05.51,3.57,1,7.14,1.55,10.67,1.41.37,1.94-.48,2.44-1.33,1.16-2,.93-4.05.52-6.17-.39-2-.68-3.95-1-6.09h4c.51,3.36,1,6.75,1.53,10.14.12.79.2,1.6.38,2.38a6.71,6.71,0,0,0,.61,1.27c.48-.27,1.22-.42,1.4-.82A25.54,25.54,0,0,0,142.77,21a12.19,12.19,0,0,0,0-4.26,4.77,4.77,0,0,0-1.64-2.25,1.73,1.73,0,0,1,1.72-2.06A2.19,2.19,0,0,1,145.47,14a12,12,0,0,1,.52,3.36,17.48,17.48,0,0,1-2.41,9.38,6.27,6.27,0,0,1-5.9,3.22c-1.29,0-1.94-.42-2-1.75a16.08,16.08,0,0,0-.41-2.23A10.21,10.21,0,0,1,133.74,28a8.31,8.31,0,0,1-2.89,1.74c-2.26.6-2.77.15-3.16-2.15q-1.14-6.61-2.27-13.23C125.34,13.89,125.34,13.38,125.3,12.87Z" transform="translate(-2.83 -3.98)"/><path class="cls-2" d="M84.14,19.73c2.61,1,4,2.55,3.61,5.21a5.14,5.14,0,0,1-4.64,4.47c-2.93.4-5.92.34-9.15.49V25.18c0-3.67,0-7.34,0-11,0-1,.28-1.46,1.34-1.49,2.19,0,4.38-.36,6.55-.22,1.84.12,3.76.65,4.46,2.71S85.88,18.45,84.14,19.73Zm-6.3,4.52v.86c0,2.55.56,2.95,3.09,2.27l.33-.1a3.3,3.3,0,0,0,2.32-3.72c-.35-1.71-2-2.55-4.41-2.36-2.24.19-1,1.88-1.33,2.88A.49.49,0,0,0,77.84,24.25Zm0-4.14a26.92,26.92,0,0,0,3.62-1.29,2.22,2.22,0,0,0,1-3.19c-.62-.87-3.61-1.51-4.32-.91a.88.88,0,0,0-.27.59C77.85,16.77,77.87,18.23,77.87,20.11Z" transform="translate(-2.83 -3.98)"/><path class="cls-2" d="M215.17,28.05a2.43,2.43,0,0,1-3,1.75,2.29,2.29,0,0,1-2-2.46c0-1.95,0-3.91,0-5.86S209,19,207.29,20a3.27,3.27,0,0,0-1.87,3.19c.13,2.05,0,4.11,0,6.29h-3.36V16.92h3.24c0,.59.09,1.15.16,2.06a10.71,10.71,0,0,1,1.4-1.07,12.9,12.9,0,0,1,3.24-1.48c2.1-.41,3.47.78,3.55,2.92s0,4.37,0,6.55C213.71,26.92,213.46,28.1,215.17,28.05Z" transform="translate(-2.83 -3.98)"/><path class="cls-2" d="M182.48,23.52c.7,3.74,3.25,4.87,7.67,3.55a2.14,2.14,0,0,1-1.86,2.73c-2.93.61-5.69.2-7.73-2.2s-2.05-5.18-.85-7.92c1.09-2.51,3.34-3.39,5.94-3.34a4.82,4.82,0,0,1,4.78,3.05c.91,2.23.45,3-1.89,3.27C186.55,22.91,184.57,23.22,182.48,23.52Zm.06-2,4.82-.7c-.2-1.88-1.12-2.53-2.61-2.42S182.6,19.43,182.54,21.5Z" transform="translate(-2.83 -3.98)"/><path class="cls-2" d="M92.61,23.5c.48,3.7,3.11,4.87,7.61,3.58a2.15,2.15,0,0,1-1.7,2.69,7.75,7.75,0,0,1-8.23-2.56,7.66,7.66,0,0,1,0-8.43,6.57,6.57,0,0,1,6.81-2.26,4.72,4.72,0,0,1,3.74,4c.24,1.24,0,1.92-1.47,2.06C97.13,22.81,94.92,23.19,92.61,23.5Zm0-2,4.64-.72c-.07-1.74-.82-2.54-2.2-2.51S92.66,19.41,92.63,21.53Z" transform="translate(-2.83 -3.98)"/><path class="cls-2" d="M150.65,23.5c.33,3.56,2.75,4.67,7.68,3.64a2.28,2.28,0,0,1-2,2.68A7.59,7.59,0,0,1,149.05,28c-2.09-2-2.35-4.54-1.72-7.17a5.85,5.85,0,0,1,5.82-4.52c2.63-.12,4.6,1,5.41,3.15s.47,2.86-1.83,3.16C154.73,22.91,152.74,23.21,150.65,23.5Zm-.16-2,4.94-.7c-.08-1.71-.88-2.43-2.27-2.49S150.89,19.15,150.49,21.52Z" transform="translate(-2.83 -3.98)"/><path class="cls-2" d="M62.3,44.86A174.14,174.14,0,0,1,62.31,4,175.22,175.22,0,0,1,62.3,44.86Z" transform="translate(-2.83 -3.98)"/><path class="cls-2" d="M171.41,19.37l-1.47-.5L169.83,17c2.17.12,1.35-1.65,1.8-2.8a9.57,9.57,0,0,1,2.21,0c.44.12,1.11.69,1.1,1-.05,1.37.59,1.69,1.8,1.56a12.44,12.44,0,0,1,1.78.08V19l-3.47.19c0,2.32-.13,4.55,0,6.76.13,1.62,1.38,2,3.92,1.52.24,1.37-.55,2-1.67,2.38-3.23,1-5.85-.88-5.92-4.23C171.37,23.55,171.41,21.48,171.41,19.37Z" transform="translate(-2.83 -3.98)"/><path class="cls-2" d="M120.49,16.92v2.13H117c0,2.45-.15,4.74,0,7,.13,1.55,1.32,1.88,4.35,1.33-.55.89-.79,1.7-1.34,2.08a4.28,4.28,0,0,1-6.62-3.11c-.14-1.88,0-3.78-.09-5.67,0-.69.24-1.47-1-1.66-.34-.06-.53-1.15-.88-2,2.23,0,1.8-1.55,1.95-2.77h3.16C117.37,16.6,117.37,16.6,120.49,16.92Z" transform="translate(-2.83 -3.98)"/><path class="cls-2" d="M168.3,16.58,168,18.82a11.45,11.45,0,0,0-2.58-.13,6.68,6.68,0,0,0-1.87,1,7.58,7.58,0,0,0,1.17,1.69,15.83,15.83,0,0,0,2.11,1.16A3.64,3.64,0,0,1,168.86,26a3.46,3.46,0,0,1-2.34,3.33,14.27,14.27,0,0,1-5.05.37,2,2,0,0,1-1.65-2.42,19.94,19.94,0,0,0,3.58.43,2.16,2.16,0,0,0,1.69-1.09c.14-.43-.54-1.23-1-1.69a7.78,7.78,0,0,0-1.66-.91c-1.9-1-2.69-2.4-2.39-4.16a4.28,4.28,0,0,1,3.58-3.31,9.25,9.25,0,0,1,1.9-.14C166.35,16.44,167.21,16.52,168.3,16.58Z" transform="translate(-2.83 -3.98)"/><path class="cls-2" d="M110.36,16.23l-.45,2.59a11.43,11.43,0,0,0-2.64-.11,6,6,0,0,0-1.78,1.06,7.19,7.19,0,0,0,1.12,1.57,11.32,11.32,0,0,0,2,1.07A3.58,3.58,0,0,1,110.8,26a3.61,3.61,0,0,1-2.75,3.58,12.81,12.81,0,0,1-4.58.18,2,2,0,0,1-1.68-2.46,14.78,14.78,0,0,0,3.28.48c.72-.06,1.4-.74,2.09-1.14a9.21,9.21,0,0,0-1.32-1.79,14.27,14.27,0,0,0-2.1-1.19,3.51,3.51,0,0,1-1.73-3.5,3.24,3.24,0,0,1,2.37-3.09A50.58,50.58,0,0,1,110.36,16.23Z" transform="translate(-2.83 -3.98)"/><path class="cls-2" d="M196.3,29.52h-3.62c0-3.18,0-6.25,0-9.33a3.78,3.78,0,0,0-1.09-2c.11-1.21,1.06-1.7,2.31-1.62s2.2.9,2.27,2.54c1.46-1.21,2.34-3,4.61-2.59v2.9a17.72,17.72,0,0,0-2.61.79,3,3,0,0,0-1.87,3.14C196.41,25.3,196.3,27.31,196.3,29.52Z" transform="translate(-2.83 -3.98)"/></g></svg>