<svg id="Capa_1" data-name="Capa 1" xmlns="http://www.w3.org/2000/svg" viewBox="0 0 400 65.22"><defs><style>.cls-1{fill:#1a1a1a;}.cls-2{fill:#f47300;}</style></defs><title>HEader</title><path class="cls-1" d="M281.29,37c-3.34,0-6.69.08-10,0-4.07-.11-5.45-1.26-5.59-5.23-.2-5.21-.19-10.44,0-15.64.14-3.58,1.46-4.86,4.94-4.92,7.28-.13,14.55-.14,21.83,0,3.46.07,4.7,1.41,4.81,5,.16,5.21.16,10.44,0,15.65-.11,3.8-1.45,5-5.37,5.1C288.37,37.12,284.83,37,281.29,37Zm10-4.86V15.83h-19.7V32.17Z"/><path class="cls-1" d="M39.19,30.34c1.31-.29,2.45-.57,3.6-.8a5.85,5.85,0,0,1,1.05,0l.62,2.65h18v-6H49c-8.37,0-9.1-.76-8.86-9.13.13-4.53,1.36-5.85,5.83-5.91,5.31-.07,10.63-.09,15.94,0,4.3.09,5.64,1.68,5.26,6.11l-4.36,1c-.14-2.4-1.51-2.84-3.55-2.77-4.51.14-9,0-13.83,0v5.7h7.87c2.95,0,5.91-.08,8.86,0,4.27.18,5.58,1.58,5.72,5.82.31,9.22-.37,9.92-9.62,9.92-4.43,0-8.86.05-13.29,0C40.24,36.94,38.88,35.36,39.19,30.34Z"/><path class="cls-1" d="M131.27,27.84l10.76,9c-4.81.65-8.88.68-12-3.39a37.32,37.32,0,0,0-5.35-5.07,4.85,4.85,0,0,0-2.28-1.15c-4.44-.67-4.83-.28-4.83,4.25,0,1.75,0,3.51,0,5.44H112V11.25h23.65a2.36,2.36,0,0,1,.85.21c5.62,2.34,2.92,7.27,3.22,11.11.24,3-1.51,4.28-4.66,4.48-1.16.07-2.33,0-3.49,0Zm-13.49-4.91c4.9,0,9.41,0,13.92,0,1.87,0,2.67-1.09,2.46-2.88s1-4.26-2-4.4c-4.76-.23-9.55-.06-14.4-.06Z"/><path class="cls-1" d="M329.21,27.33l11.35,9.47c-4.75.64-8.83.79-11.89-3.34-1.28-1.71-3.27-2.87-4.65-4.51-1.83-2.18-4.17-2-6.48-1.7-.55.07-1.29,1.29-1.34,2-.17,2.44-.07,4.9-.07,7.56h-5.55V11.16h8.17c4.53,0,9.06,0,13.58,0s6,1.44,6.09,6c0,1.38,0,2.76,0,4.14-.07,4.35-1.33,5.65-5.59,5.82C331.89,27.15,331,27.22,329.21,27.33Zm-13-4.41c4.92,0,9.53.12,14.11-.11a3.26,3.26,0,0,0,2.21-2.32c.07-1.63,1.23-4.46-1.41-4.7-4.91-.44-9.88-.13-14.91-.13Z"/><path class="cls-1" d="M216.55,20.48l-.28-4.6H200.16V32.16h16.11c.08-1.64.16-3.18.25-5.09,2.13.44,4.89-.78,5.63,2.15,1.09,4.32-.63,7.47-4.15,7.63-6.48.28-13,.18-19.47.06a4,4,0,0,1-4.29-4.3q-.08-8.57,0-17.12c0-2.78,1.83-4.17,4.38-4.22,6.39-.12,12.79-.2,19.18,0,3.56.13,5.64,4,4.33,7.49a1.93,1.93,0,0,1-1.22,1C219.6,20.11,218.23,20.23,216.55,20.48Z"/><path class="cls-1" d="M2.09,36.88V11.35h26.1v4H12.4c-5.08,0-5.35.37-4.12,6H19.73v4.32H8.41c-.29.49-.45.64-.47.82-.79,5.62-.6,5.86,4.93,5.86h15.7v4.51Z"/><path class="cls-1" d="M152.26,11.3h5.62c0,1.88,0,3.79,0,5.7,0,4.33.05,8.67,0,13,0,1.78.59,2.44,2.4,2.4,4.23-.1,8.46-.11,12.69,0,1.94.05,2.56-.62,2.53-2.54-.1-6.1,0-12.2,0-18.5h5.82c0,3.64,0,7.35,0,11.05,0,3.16.09,6.32-.08,9.46-.2,3.66-1.5,5-5.14,5.11-6.29.13-12.59.09-18.89,0-2.58,0-4.8-1.06-4.85-4.06C152.19,25.76,152.26,18.6,152.26,11.3Z"/><path class="cls-1" d="M365.37,36.75c4.67-8.28,9.18-16.33,13.77-24.32,1.07-1.88,6-1.91,7.07,0,4.57,7.91,9.06,15.86,13.57,23.81.09.14,0,.36,0,.55-5.56.88-5.63.92-8-3.53a3.39,3.39,0,0,0-3.51-2c-3.93.1-7.87.11-11.79,0-1.68,0-2.93.35-3.43,2C371.87,37.09,369.18,37.71,365.37,36.75Zm22.78-10.08L382.45,16l-5.84,10.71Z"/><path class="cls-1" d="M86.59,36.87V15.74H74.92V11.36h29.45v4.22H92.62V36.87Z"/><path class="cls-1" d="M241.05,15.67h-12V11.32h29.41v4.32H246.78V36.91h-5.73Z"/><path class="cls-1" d="M356.14,36.94h-5.38V11.39h5.38Z"/><path class="cls-1" d="M360.4.27c-3.95,2.49-4.7,7.64-10,7.91C354-.08,354.51-.52,360.4.27Z"/><path class="cls-2" d="M35.37,57l-1.69.38-.23-1.36H25.21c0,2.26,0,4.45,0,6.64a1,1,0,0,0,.68.68c2.48.05,5,0,7.54,0V60.67c-1.36-.17-2.73-.33-4.1-.55a5.85,5.85,0,0,1,0-.88h5.93a2.72,2.72,0,0,1,.15.54c.26,5,.14,5.1-4.83,5.1-1.63,0-3.26,0-4.89,0s-2.27-.51-2.31-2.21q-.07-3,0-5.9c0-1.66.55-2.16,2.18-2.18,2.5,0,5,0,7.49,0C34.86,54.59,35.28,55.06,35.37,57Z"/><path class="cls-2" d="M309.57,60.87l4.3,3.86c-1.46.35-2.55.21-3.42-.94-.46-.6-1.17-1-1.61-1.63-1.11-1.55-2.59-1.52-4.32-1.22v3.83H302.7V54.59h8.9a1.14,1.14,0,0,1,.67.24c1.51,1.31.73,3,.73,4.58,0,1-1,1.3-1.89,1.37C310.73,60.82,310.36,60.83,309.57,60.87ZM304.62,56v3.48c1.85,0,3.62,0,5.38,0,1.3,0,1.23-.89,1.24-1.78s-.07-1.74-1.33-1.71C308.19,56,306.47,56,304.62,56Z"/><path class="cls-2" d="M105.07,64.81V54.41c3.09.17,6.14.17,9.14.58,1.85.25,3,2.26,3.13,4.35.1,2.5-.76,4.15-2.72,4.9a9.21,9.21,0,0,1-2.79.59c-2,.1-3.94,0-5.9,0C105.69,64.87,105.46,64.84,105.07,64.81ZM107,63.52c2.12-.13,4.18-.13,6.19-.44,1.58-.25,2.31-1.53,2.33-3.36s-.66-3.09-2.14-3.34c-2.08-.35-4.22-.37-6.38-.53Z"/><path class="cls-2" d="M181.71,54.57c1.34,0,2.68,0,4,0,1.57,0,2.11.54,2.14,2.05,0,2.06,0,4.12,0,6.18a1.77,1.77,0,0,1-1.89,2c-2.87,0-5.75,0-8.62,0a1.75,1.75,0,0,1-1.93-2c0-2.1,0-4.21,0-6.31,0-1.4.79-2,2.09-2ZM177.24,56c0,2.3,0,4.44,0,6.58,0,.28.65.76,1,.77,2.25.07,4.5.06,6.75,0,.34,0,1-.34,1-.53.07-2.27,0-4.53,0-6.83Z"/><path class="cls-2" d="M377.18,64.86c-1.39,0-2.78,0-4.17,0s-2.06-.63-2.05-2c0-2.1,0-4.21,0-6.31a1.76,1.76,0,0,1,2-1.94c2.82,0,5.65,0,8.47,0a1.76,1.76,0,0,1,2,1.94c0,2.1,0,4.21,0,6.32,0,1.4-.78,2-2.06,2S378.57,64.86,377.18,64.86ZM372.77,56c0,2.32,0,4.51,0,6.69,0,.24.54.65.84.66q3.51.09,7,0c.3,0,.86-.4.86-.63.07-2.23,0-4.45,0-6.72Z"/><path class="cls-2" d="M246.22,54.57c1.34,0,2.68,0,4,0,1.57,0,2.1.54,2.13,2.06,0,2.06,0,4.12,0,6.18a1.81,1.81,0,0,1-2,2c-2.77,0-5.55,0-8.33,0-1.28,0-2.07-.6-2.06-2,0-2.1,0-4.21,0-6.32a1.76,1.76,0,0,1,2-2c1.44,0,2.88,0,4.31,0Zm-4.48,1.49c0,2.29,0,4.4,0,6.5a1.17,1.17,0,0,0,.83.81c2.38.07,4.78.06,7.17,0,.26,0,.74-.39.75-.61.06-2.23,0-4.46,0-6.71Z"/><path class="cls-2" d="M84.09,54.57c1.34,0,2.69,0,4,0,1.57,0,2.11.54,2.15,2.05,0,2.06,0,4.12,0,6.18a1.76,1.76,0,0,1-1.89,2q-4.3.06-8.61,0a1.75,1.75,0,0,1-1.94-2c0-2.1,0-4.21,0-6.32,0-1.39.78-2,2.09-2Zm-4.46,1.48c0,2.27,0,4.37,0,6.46a1.29,1.29,0,0,0,.92.86c2.29.08,4.59.07,6.89,0,.33,0,.92-.45.93-.71.08-2.18,0-4.37,0-6.62Z"/><path class="cls-2" d="M130.58,56.05v2.77h5.89c3,0,4.43,2.52,2.92,5.12a2.3,2.3,0,0,1-1.65.88c-2.44.09-4.89.05-7.33,0-.37,0-.92,0-1.08-.29a5.51,5.51,0,0,1-.86-2c0-.16.82-.49,1.47-.86,0,1.64.8,1.74,1.87,1.71,2-.07,4,0,6.13,0V60.33c-2.13,0-4.23,0-6.32,0-1,0-2.32.21-2.55-1a11.55,11.55,0,0,1,.23-4c.06-.32,1-.63,1.6-.65,2.2-.07,4.41-.07,6.61,0,1.58,0,2,.62,1.92,2.4l-1.38.28-.33-1.21Z"/><path class="cls-2" d="M275.49,61.55c-.24,1.82.55,1.9,1.52,1.88,2.1,0,4.2,0,6.38,0V60.33c-1.16,0-2.29,0-3.42,0s-2.3,0-3.45,0a2.74,2.74,0,0,1-1.26-.19c-1.63-.94-.9-2.55-.95-3.9A1.51,1.51,0,0,1,276,54.61c2.44,0,4.89-.08,7.33,0,1.31.05,1.79.94,1.59,2.34l-1.38.33-.37-1.23H276v2.76c2.18,0,4.28,0,6.37,0,.93,0,2.25-.2,2.42,1a15.18,15.18,0,0,1-.23,4.45c0,.27-1,.56-1.51.57-2.39.07-4.79,0-7.18,0-.38,0-.91,0-1.08-.27a5.11,5.11,0,0,1-.93-1.92C273.84,62.48,274.65,62.11,275.49,61.55Z"/><path class="cls-2" d="M16.84,62.38V54.65l1.59-.11V65.12a8.66,8.66,0,0,1-1.88-.93c-2.72-2.35-5.39-4.75-8.18-7.23v7.81H6.69V54.32a9.21,9.21,0,0,1,2.17,1C11.48,57.55,14,59.88,16.84,62.38Z"/><path class="cls-2" d="M267.42,62.43v-7.8H269V65.08a8.2,8.2,0,0,1-1.87-.85c-2.75-2.37-5.44-4.8-8.29-7.32v7.9h-1.59V54.29a8.8,8.8,0,0,1,2.1,1C262,57.54,264.56,59.88,267.42,62.43Z"/><path class="cls-2" d="M400,65.22a11.94,11.94,0,0,1-2-1.1c-2.71-2.34-5.38-4.73-8.19-7.21v7.91h-1.58V54.35a8.22,8.22,0,0,1,2.12.93c2.65,2.26,5.23,4.61,8,7.07V54.68H400Z"/><path class="cls-2" d="M170.5,65.21a11.58,11.58,0,0,1-2-1.08c-2.71-2.34-5.38-4.73-8.18-7.22v7.9h-1.59V54.36a8.68,8.68,0,0,1,2.11.91c2.65,2.27,5.23,4.62,8,7.11V54.62h1.62Z"/><path class="cls-2" d="M56.1,56.91v7.9l-1.57.08V54.32a8.25,8.25,0,0,1,2.06.92c2.65,2.28,5.24,4.63,8,7.11V54.63l1.64-.07V65.17a11.49,11.49,0,0,1-1.94-1C61.6,61.81,58.93,59.42,56.1,56.91Z"/><path class="cls-2" d="M154.66,63.35v1.44H144.37V54.63h10.19V56h-8.32v2.79h4.94l.07,1.5h-5v3.11Z"/><path class="cls-2" d="M50.42,63.42v1.39H40.1V54.65H50.32L50.44,56H42V58.8c1.33,0,2.65,0,4,0,1.06,0,1.06,0,1,1.41H42v3.21Z"/><path class="cls-2" d="M234,58.19l-.2-2.11h-7.3c0,2.26,0,4.53,0,6.81,0,.18.55.49.85.5,1.87,0,3.75.07,5.61,0,.32,0,.72-.57.87-.95a5.27,5.27,0,0,0,.1-1.48l1.59.33c.43,3-.09,3.6-2.88,3.61-1.87,0-3.74,0-5.61,0s-2.34-.48-2.39-2.28,0-3.84,0-5.75.54-2.25,2.39-2.27,3.83,0,5.75,0c2.61,0,3.07.55,2.77,3.33Z"/><path class="cls-2" d="M343.1,61l1.58.31c.47,2.92-.08,3.6-2.84,3.61-1.92,0-3.84,0-5.76,0-1.75,0-2.22-.5-2.26-2.24,0-2,0-4,0-6,0-1.39.74-2,2.07-2,2,0,4,0,6,0,2.62,0,3.06.52,2.81,3.3l-1.58.33c-.08-.71-.15-1.36-.23-2.1h-7.31c0,2.25,0,4.44,0,6.63,0,.24.54.65.84.66,1.87.06,3.75.08,5.62,0,.31,0,.73-.55.88-.93A4.9,4.9,0,0,0,343.1,61Z"/><path class="cls-2" d="M360,61.26c.31,3.09-.14,3.61-3,3.62-1.87,0-3.74,0-5.61,0s-2.27-.49-2.31-2.2q-.07-3,0-5.91c0-1.71.54-2.17,2.31-2.19,2,0,3.93,0,5.9,0,2.54,0,3.06.66,2.66,3.35l-1.56.24-.18-2h-7.33c0,2.2,0,4.39.05,6.57,0,.26.69.69,1.07.71,1.58.08,3.17,0,4.75.06,1.16.06,1.73-.28,1.56-1.51a4.81,4.81,0,0,1,.06-1Z"/><path class="cls-2" d="M317.7,54.62h1.77V63.4c2.45,0,4.73,0,7,0,.25,0,.68-.7.69-1.09.06-2.49,0-5,0-7.62l1.85-.1V57c0,1.92,0,3.83,0,5.75a1.82,1.82,0,0,1-2,2.1c-2.49,0-5,0-7.47,0-1,0-1.85-.41-1.87-1.58C317.68,60.4,317.7,57.54,317.7,54.62Z"/><path class="cls-2" d="M294.66,64.8h-1.9V56h-4.82l-.13-1.4h11.63V56h-4.78Z"/><path class="cls-2" d="M200.19,54.72a2.58,2.58,0,0,1,3.08.87c.94,1.2,2,2.26,3.18,3.48,1.06-1.21,2.1-2.27,3-3.44a2.51,2.51,0,0,1,3-.94c-1.37,1.49-2.6,2.94-3.95,4.27a3.71,3.71,0,0,0-1.3,3.29,21,21,0,0,1,0,2.52h-1.8a11.51,11.51,0,0,1,0-1.66,5,5,0,0,0-1.87-4.78C202.39,57.28,201.4,56,200.19,54.72Z"/><path class="cls-2" d="M1.75,64.81H0V54.66H1.75Z"/><path class="cls-2" d="M364.54,54.65h1.71V64.8h-1.71Z"/><path class="cls-2" d="M122.11,54.62h1.72V64.77h-1.72Z"/><path class="cls-2" d="M73.17,54.66V64.8H71.41V54.66Z"/><path class="cls-2" d="M161.28,52.74c.49-2,1.45-2.78,2.83-2.34,1.19.38,2.27.72,3.26-.39.07-.07.35,0,.54.05-.56,1.9-1.44,2.41-3.15,2a4.67,4.67,0,0,0-1.8-.25A6.33,6.33,0,0,0,161.28,52.74Z"/><path class="cls-2" d="M375.79,52.89a25.73,25.73,0,0,1,2-3.27c.37-.44,1.23-.47,1.95-.5-1.14,1.5-1.88,3.28-3.55,4.15Z"/></svg>