<svg id="Capa_1" data-name="Capa 1" xmlns="http://www.w3.org/2000/svg" xmlns:xlink="http://www.w3.org/1999/xlink" viewBox="0 0 168.04 59.4"><defs><style>.cls-1{fill:#fff;}.cls-2{opacity:0.7;}.cls-3{clip-path:url(#clip-path);}.cls-4{clip-path:url(#clip-path-2);}.cls-5{clip-path:url(#clip-path-3);}.cls-6{clip-path:url(#clip-path-4);}</style><clipPath id="clip-path" transform="translate(5.6 4.43)"><path class="cls-1" d="M18.69,8.27C6.26,13.52-.51,25.57,3.55,35.17c8.27,19.95,46.56,7.75,46.15-12.79L46,23.3c-2.09,14.46-29,21.75-34.82,7.49C4.46,15.16,33.16.67,43.44,13.3l2.9-.79C40.3,5,27.75,4.22,18.69,8.27"/></clipPath><clipPath id="clip-path-2" transform="translate(5.6 4.43)"><path class="cls-1" d="M16,26.67l1.48,5.11s8.82-7.67,31.36-13.89A20.12,20.12,0,0,0,48,15.44C26.22,19.28,16,26.67,16,26.67"/></clipPath><clipPath id="clip-path-3" transform="translate(5.6 4.43)"><path class="cls-1" d="M34.49,44.92c-.62.32-1.23.62-1.85.9.13,1.37.28,2.4.28,2.4s4.65,1.35,11.73-1.53a42.38,42.38,0,0,0-3.71-6.15,35,35,0,0,1-6.45,4.38"/></clipPath><clipPath id="clip-path-4" transform="translate(5.6 4.43)"><path class="cls-1" d="M13,.56a41.68,41.68,0,0,0,2.73,6.73,35.19,35.19,0,0,1,8.87-2.36c.19-2.09.22-4,.22-4C24.1.08,16-.6,13,.56"/></clipPath></defs><title>JE jaimes</title><g class="cls-2"><path class="cls-1" d="M67.94,28.46c-.29,3.1-2.78,4.49-5.63,3.7l-.58-2.1c2.59.68,4,.14,4.22-3.06l2.42-16.2h2.19Z" transform="translate(5.6 4.43)"/><path class="cls-1" d="M71.41,25.9a1.24,1.24,0,0,1,2.47,0,1.24,1.24,0,0,1-2.47,0" transform="translate(5.6 4.43)"/><polygon class="cls-1" points="92.84 31.37 82.17 31.37 84.57 15.23 93.16 15.23 92.87 17.14 86.44 17.14 85.7 22.04 91.38 22.04 91.09 24.03 85.42 24.03 84.62 29.42 93.12 29.42 92.84 31.37"/><path class="cls-1" d="M88.47,25.9a1.24,1.24,0,0,1,2.47,0,1.24,1.24,0,0,1-2.47,0" transform="translate(5.6 4.43)"/><path class="cls-1" d="M101,28.46c-.28,3.09-2.77,4.49-5.61,3.7l-.6-2.1c2.6.68,4,.14,4.23-3.06l2.42-16.2h2.19Z" transform="translate(5.6 4.43)"/><path class="cls-1" d="M105,26.94h-2.21l6.95-16.14h2l3.35,16.14h-2l-1-4.83h-5.18Zm6.72-6.78-1.34-6.4-2.6,6.4Z" transform="translate(5.6 4.43)"/><polygon class="cls-1" points="123.84 31.37 121.64 31.37 124.03 15.23 126.26 15.23 123.84 31.37"/><polygon class="cls-1" points="127.99 31.37 125.86 31.37 131.09 15.23 132.92 15.23 135.54 26.05 141.21 15.23 143.15 15.23 143.57 31.37 141.54 31.37 141.26 19.18 134.78 31.37 131.88 19.18 127.99 31.37"/><polygon class="cls-1" points="155.96 31.37 145.28 31.37 147.69 15.23 156.27 15.23 155.98 17.14 149.55 17.14 148.81 22.04 154.5 22.04 154.21 24.03 148.54 24.03 147.73 29.42 156.24 29.42 155.96 31.37"/><path class="cls-1" d="M151,26l.35-2.33c3.95,3.45,9.55.13,3.7-4-6.58-4-1-11.69,5.19-8.47L160,13.39c-4.7-2.59-8.36,1.6-2.84,5.09,6.7,4.82-.61,11.61-6.15,7.54" transform="translate(5.6 4.43)"/><rect class="cls-1" x="108.22" y="33.15" width="0.49" height="5.75"/><polygon class="cls-1" points="110.08 38.9 110.08 33.15 110.57 33.15 114.77 38.17 114.77 33.15 115.22 33.15 115.22 38.9 114.8 38.9 110.54 33.82 110.54 38.9 110.08 38.9"/><path class="cls-1" d="M115.74,34c-6.61,3.15-6.59-8,0-4.86v.48c-5.47-3.2-6.3,6.47-.45,4.13V32.23h-1.21v-.4h1.66V34Z" transform="translate(5.6 4.43)"/><polygon class="cls-1" points="122.58 38.9 122.58 33.15 125.69 33.15 125.69 33.52 123.04 33.52 123.04 35.8 125.6 35.8 125.6 36.17 123.04 36.17 123.04 38.51 125.76 38.51 125.76 38.9 122.58 38.9"/><polygon class="cls-1" points="126.73 38.9 126.73 33.15 127.21 33.15 131.41 38.17 131.41 33.15 131.87 33.15 131.87 38.9 131.44 38.9 127.18 33.82 127.18 38.9 126.73 38.9"/><rect class="cls-1" x="133.25" y="33.15" width="0.49" height="5.75"/><polygon class="cls-1" points="135.12 38.9 135.12 33.15 138.22 33.15 138.22 33.52 135.57 33.52 135.57 35.8 138.13 35.8 138.13 36.17 135.57 36.17 135.57 38.51 138.29 38.51 138.29 38.9 135.12 38.9"/><path class="cls-1" d="M133.66,28.72c2.2-.51,5,1.29,2.19,2.83.49.19,1.76,2.51,2.09,2.92h-.52c-.88-1.2-1.47-3.18-3.31-2.77v2.77h-.45V28.72Zm.45.39V31.3c3.14.46,3.08-2.71,0-2.19Z" transform="translate(5.6 4.43)"/><path class="cls-1" d="M138,31.57c0-3.82,6.09-3.81,6,0s-6.11,3.86-6,0m.51,0c-.07,3.32,5.1,3.32,5,0s-5.09-3.3-5,0" transform="translate(5.6 4.43)"/><path class="cls-1" d="M147.78,29.54c-1-1-3.21-.26-2.29,1.22.29.37,1.85.82,2.11,1.21,1.41,1.83-1.31,3.43-2.8,2.07v-.56c1.66,1.82,4.24-.85,1.45-1.74-3-.88-.68-4.29,1.53-2.72v.52Z" transform="translate(5.6 4.43)"/><path class="cls-1" d="M153.74,29.54c-1-1-3.21-.26-2.28,1.22.29.37,1.85.82,2.1,1.21,1.43,1.82-1.31,3.44-2.8,2.07v-.56c1.66,1.81,4.24-.85,1.46-1.74-3-.87-.69-4.29,1.52-2.72v.52Z" transform="translate(5.6 4.43)"/><rect class="cls-1" x="160.61" y="38.06" width="0.55" height="0.84"/><path class="cls-1" d="M156.12,34.47l2.5-5.79h.18l2.51,5.79h-.48l-.86-2h-2.52l-.85,2Zm1.49-2.39h2.2l-1.1-2.61Z" transform="translate(5.6 4.43)"/><rect class="cls-1" x="167.49" y="38.06" width="0.55" height="0.84"/><path class="cls-1" d="M18.69,8.27C6.26,13.52-.51,25.57,3.55,35.17c8.27,19.95,46.56,7.75,46.15-12.79L46,23.3c-2.09,14.46-29,21.75-34.82,7.49C4.46,15.16,33.16.67,43.44,13.3l2.9-.79C40.3,5,27.75,4.22,18.69,8.27" transform="translate(5.6 4.43)"/><g class="cls-3"><polygon class="cls-1" points="0 10.88 54.58 4.24 60.4 52.1 5.82 58.75 0 10.88"/></g><path class="cls-1" d="M16,26.67l1.48,5.11s8.82-7.67,31.36-13.89A20.12,20.12,0,0,0,48,15.44C26.22,19.28,16,26.67,16,26.67" transform="translate(5.6 4.43)"/><g class="cls-4"><polygon class="cls-1" points="15.9 22.21 49.76 8.36 60.19 33.87 26.33 47.72 15.9 22.21"/></g><path class="cls-1" d="M34.49,44.92c-.62.32-1.23.62-1.85.9.13,1.37.28,2.4.28,2.4s4.65,1.35,11.73-1.53a42.38,42.38,0,0,0-3.71-6.15,35,35,0,0,1-6.45,4.38" transform="translate(5.6 4.43)"/><g class="cls-5"><polygon class="cls-1" points="41.62 59.4 34.19 47.51 46.88 39.58 54.31 51.47 41.62 59.4"/></g><path class="cls-1" d="M13,.56a41.68,41.68,0,0,0,2.73,6.73,35.19,35.19,0,0,1,8.87-2.36c.19-2.09.22-4,.22-4C24.1.08,16-.6,13,.56" transform="translate(5.6 4.43)"/><g class="cls-6"><polygon class="cls-1" points="28.52 0 33.08 10.55 20.41 16.03 15.86 5.47 28.52 0"/></g></g></svg>