<svg id="Capa_1" data-name="Capa 1" xmlns="http://www.w3.org/2000/svg" viewBox="0 0 154.21 48.24"><defs><style>.cls-1{opacity:0.7;}.cls-2{fill:#fff;}</style></defs><title>Aeropuerto MATECAÑA</title><g class="cls-1"><path class="cls-2" d="M126,35.57h0q-10.7,0-21.39-.09L85.89,35.4c-1.52,0-4.35,0-4.35-3.11a2.6,2.6,0,0,1,.87-2,4.4,4.4,0,0,1,3.3-1c9.12.77,17.77-1.89,26.13-4.46,2.11-.65,4.29-1.32,6.45-1.93,1.8-.51,3.53-1.16,5.54-1.91l1.61-.6a.13.13,0,0,0,.1-.13.13.13,0,0,0-.07-.15c-4.56-2.55-4.55-3.23-3.12-8.71.42-1.58.84-3.17,1.27-4.75s.9-3.36,1.34-5c0,0,0,0,0-.19a.14.14,0,0,0-.08-.1c-1.73-.63-3-.18-4.23,1.52C119.12,5,117.54,7,116,8.94s-3.17,4.1-4.69,6.2c-1.8,2.48-3.8,3.55-6.51,3.47-3-.09-6-.15-9-.2-4.38-.08-8.91-.17-13.36-.36l-3.11-.14c-10.2-.45-20.74-.91-31.09-1.79-5.54-.45-9.42,2.27-13.52,5.15-1,.68-2,1.38-3,2a1.15,1.15,0,0,0-.57,1.22,2.77,2.77,0,0,0,2.29,1.9A105.18,105.18,0,0,0,48,28.8c3.8.32,7.71.36,11.48.4,1.83,0,3.73,0,5.59.09h.36a4.71,4.71,0,0,1,2.47.48,3.06,3.06,0,0,1,1.33,2.58,3.52,3.52,0,0,1-1.56,2.55,3.46,3.46,0,0,1-2,.34h-.34q-17.26,0-34.53-.08V34q17.27,0,34.53.08h.37a2.82,2.82,0,0,0,1.3-.15,2.42,2.42,0,0,0,1-1.63,1.89,1.89,0,0,0-.8-1.55,3.92,3.92,0,0,0-1.86-.3H65c-1.85-.05-3.74-.07-5.57-.09-3.8,0-7.72-.08-11.57-.4a107.49,107.49,0,0,1-14.6-2.42,3.88,3.88,0,0,1-3.18-2.83,2.3,2.3,0,0,1,1.09-2.39c1-.63,2-1.33,2.91-2,4.1-2.89,8.33-5.87,14.29-5.36,10.32.87,20.85,1.33,31,1.78l3.11.14c4.44.19,9,.28,13.33.36,2.94.05,6,.11,9,.2,2.31.08,4-.82,5.53-3s3.15-4.21,4.71-6.23,3.09-4,4.56-6S123-.53,125.23.29a1.31,1.31,0,0,1,.8.87,1.42,1.42,0,0,1,0,.8c-.44,1.69-.89,3.37-1.34,5.06s-.85,3.16-1.27,4.75c-1.33,5.11-1.36,5.2,2.56,7.4a1.31,1.31,0,0,1-.19,2.38l-1.6.6c-2,.76-3.79,1.42-5.64,1.94-2.14.6-4.32,1.27-6.42,1.91-8.47,2.61-17.22,5.31-26.56,4.51a3.31,3.31,0,0,0-2.43.67,1.47,1.47,0,0,0-.49,1.11c0,1.65,1,2,3.19,2l18.65.08q10.69.06,21.39.09a11.94,11.94,0,0,0,1.67-.12l.82-.08.1,1.16-.79.08A17.15,17.15,0,0,1,126,35.57Z" transform="translate(-2.84 0.06)"/><path class="cls-2" d="M2.84,48.09l2-5.24H5.6l2.14,5.24H7L6.34,46.5H4.15l-.57,1.59Zm1.51-2.15H6.13l-.55-1.45c-.16-.44-.29-.8-.37-1.09a7.08,7.08,0,0,1-.28,1Z" transform="translate(-2.84 0.06)"/><path class="cls-2" d="M8.31,48.09V42.85H12.1v.62H9v1.61h2.9v.61H9v1.78h3.22v.62Z" transform="translate(-2.84 0.06)"/><path class="cls-2" d="M13.19,48.09V42.85h2.32a3.14,3.14,0,0,1,1.06.14,1.25,1.25,0,0,1,.59.5,1.53,1.53,0,0,1,.21.79,1.31,1.31,0,0,1-.36.94,1.8,1.8,0,0,1-1.11.49,1.92,1.92,0,0,1,.42.26,3.46,3.46,0,0,1,.57.7l.91,1.42h-.87L16.24,47c-.2-.31-.37-.55-.5-.72a1.63,1.63,0,0,0-.35-.35,1.12,1.12,0,0,0-.32-.14,2,2,0,0,0-.39,0h-.8v2.32Zm.69-2.92h1.49a2.35,2.35,0,0,0,.74-.1.78.78,0,0,0,.41-.32.86.86,0,0,0,.14-.47.79.79,0,0,0-.27-.61,1.25,1.25,0,0,0-.85-.24H13.88Z" transform="translate(-2.84 0.06)"/><path class="cls-2" d="M18.25,45.54a2.82,2.82,0,0,1,.7-2,2.4,2.4,0,0,1,1.81-.74,2.48,2.48,0,0,1,1.3.35,2.23,2.23,0,0,1,.89,1,3.24,3.24,0,0,1,.31,1.41,3.09,3.09,0,0,1-.32,1.42,2.25,2.25,0,0,1-.92,1,2.63,2.63,0,0,1-1.27.32,2.47,2.47,0,0,1-1.32-.36,2.29,2.29,0,0,1-.88-1A3,3,0,0,1,18.25,45.54Zm.71,0A2.09,2.09,0,0,0,19.47,47,1.78,1.78,0,0,0,22,47a2.27,2.27,0,0,0,.5-1.56,2.76,2.76,0,0,0-.21-1.12,1.66,1.66,0,0,0-.64-.74,1.71,1.71,0,0,0-.93-.26,1.82,1.82,0,0,0-1.27.5A2.28,2.28,0,0,0,19,45.55Z" transform="translate(-2.84 0.06)"/><path class="cls-2" d="M24.15,48.09V42.85h2a5.11,5.11,0,0,1,.79,0,1.73,1.73,0,0,1,.65.25,1.39,1.39,0,0,1,.42.5,1.73,1.73,0,0,1,.16.72,1.6,1.6,0,0,1-.43,1.13,2,2,0,0,1-1.53.46H24.84v2.13Zm.69-2.75H26.2a1.42,1.42,0,0,0,.95-.25.87.87,0,0,0,.28-.7.93.93,0,0,0-.16-.56.77.77,0,0,0-.44-.31,3,3,0,0,0-.65-.05H24.84Z" transform="translate(-2.84 0.06)"/><path class="cls-2" d="M32.47,42.85h.69v3A3.52,3.52,0,0,1,33,47.13a1.53,1.53,0,0,1-.65.76,2.29,2.29,0,0,1-1.22.29,2.61,2.61,0,0,1-1.2-.25,1.46,1.46,0,0,1-.67-.74,3.57,3.57,0,0,1-.2-1.31v-3h.69v3a2.76,2.76,0,0,0,.13,1,.93.93,0,0,0,.44.5,1.44,1.44,0,0,0,.75.17,1.45,1.45,0,0,0,1.09-.34,2,2,0,0,0,.33-1.33Z" transform="translate(-2.84 0.06)"/><path class="cls-2" d="M34.33,48.09V42.85h3.78v.62H35v1.61h2.9v.61H35v1.78h3.21v.62Z" transform="translate(-2.84 0.06)"/><path class="cls-2" d="M39.2,48.09V42.85h2.32a3.21,3.21,0,0,1,1.07.14,1.27,1.27,0,0,1,.58.5,1.45,1.45,0,0,1,.22.79,1.31,1.31,0,0,1-.36.94,1.8,1.8,0,0,1-1.12.49,1.53,1.53,0,0,1,.42.26,3.85,3.85,0,0,1,.58.7l.91,1.42H43L42.25,47c-.2-.31-.37-.55-.5-.72a1.63,1.63,0,0,0-.35-.35,1,1,0,0,0-.32-.14,1.79,1.79,0,0,0-.38,0h-.81v2.32Zm.69-2.92h1.49a2.42,2.42,0,0,0,.75-.1.76.76,0,0,0,.4-.32.84.84,0,0,0-.13-1.08,1.25,1.25,0,0,0-.85-.24H39.89Z" transform="translate(-2.84 0.06)"/><path class="cls-2" d="M45.67,48.09V43.47H44v-.62H48.1v.62H46.37v4.62Z" transform="translate(-2.84 0.06)"/><path class="cls-2" d="M48.47,45.54a2.82,2.82,0,0,1,.7-2,2.37,2.37,0,0,1,1.8-.74,2.52,2.52,0,0,1,1.31.35,2.23,2.23,0,0,1,.89,1,3.24,3.24,0,0,1,.31,1.41,3,3,0,0,1-.33,1.42,2.17,2.17,0,0,1-.91,1,2.63,2.63,0,0,1-1.27.32,2.47,2.47,0,0,1-1.32-.36,2.29,2.29,0,0,1-.88-1A3,3,0,0,1,48.47,45.54Zm.71,0A2.09,2.09,0,0,0,49.69,47a1.78,1.78,0,0,0,2.57,0,2.27,2.27,0,0,0,.5-1.56,2.6,2.6,0,0,0-.22-1.12,1.58,1.58,0,0,0-.63-.74,1.74,1.74,0,0,0-.93-.26,1.82,1.82,0,0,0-1.27.5A2.28,2.28,0,0,0,49.18,45.55Z" transform="translate(-2.84 0.06)"/><path class="cls-2" d="M56.52,48.09V42.85h.69v5.24Z" transform="translate(-2.84 0.06)"/><path class="cls-2" d="M58.43,48.09V42.85h.71L61.89,47V42.85h.66v5.24h-.71L59.09,44v4.11Z" transform="translate(-2.84 0.06)"/><path class="cls-2" d="M65.05,48.09V43.47H63.32v-.62h4.15v.62H65.74v4.62Z" transform="translate(-2.84 0.06)"/><path class="cls-2" d="M68.2,48.09V42.85H72v.62H68.89v1.61h2.9v.61h-2.9v1.78h3.22v.62Z" transform="translate(-2.84 0.06)"/><path class="cls-2" d="M73.07,48.09V42.85H75.4a3.18,3.18,0,0,1,1.06.14,1.22,1.22,0,0,1,.58.5,1.45,1.45,0,0,1,.22.79,1.31,1.31,0,0,1-.36.94,1.8,1.8,0,0,1-1.11.49,1.62,1.62,0,0,1,.41.26,3.18,3.18,0,0,1,.58.7l.91,1.42h-.87L76.12,47a8.25,8.25,0,0,0-.5-.72,1.43,1.43,0,0,0-.35-.35,1.06,1.06,0,0,0-.31-.14,2,2,0,0,0-.39,0h-.8v2.32Zm.7-2.92h1.49a2.4,2.4,0,0,0,.74-.1.82.82,0,0,0,.41-.32.86.86,0,0,0,.14-.47.79.79,0,0,0-.27-.61,1.28,1.28,0,0,0-.86-.24H73.77Z" transform="translate(-2.84 0.06)"/><path class="cls-2" d="M78.34,48.09V42.85h.71L81.8,47V42.85h.67v5.24h-.72L79,44v4.11Z" transform="translate(-2.84 0.06)"/><path class="cls-2" d="M83.05,48.09l2-5.24h.74L88,48.09h-.79l-.62-1.59H84.37l-.58,1.59Zm1.52-2.15h1.77l-.55-1.45c-.16-.44-.29-.8-.37-1.09a6,6,0,0,1-.28,1Z" transform="translate(-2.84 0.06)"/><path class="cls-2" d="M92.24,46.25l.7.18a2.35,2.35,0,0,1-.79,1.3,2.12,2.12,0,0,1-1.38.45,2.52,2.52,0,0,1-1.38-.35,2.09,2.09,0,0,1-.8-1,3.51,3.51,0,0,1-.28-1.41A3,3,0,0,1,88.62,44a2.16,2.16,0,0,1,.89-.93,2.63,2.63,0,0,1,1.27-.32,2.2,2.2,0,0,1,1.32.4,2.1,2.1,0,0,1,.75,1.13l-.68.16a1.66,1.66,0,0,0-.53-.83,1.36,1.36,0,0,0-.87-.26,1.63,1.63,0,0,0-1,.29,1.52,1.52,0,0,0-.57.77,3.15,3.15,0,0,0-.17,1,3.26,3.26,0,0,0,.2,1.17,1.44,1.44,0,0,0,.6.74,1.76,1.76,0,0,0,.89.25,1.52,1.52,0,0,0,1-.34A1.68,1.68,0,0,0,92.24,46.25Z" transform="translate(-2.84 0.06)"/><path class="cls-2" d="M93.91,48.09V42.85h.69v5.24Z" transform="translate(-2.84 0.06)"/><path class="cls-2" d="M95.61,45.54a2.87,2.87,0,0,1,.7-2,2.4,2.4,0,0,1,1.81-.74,2.54,2.54,0,0,1,1.31.35,2.29,2.29,0,0,1,.89,1,3.24,3.24,0,0,1,.3,1.41,3.09,3.09,0,0,1-.32,1.42,2.22,2.22,0,0,1-.91,1,2.66,2.66,0,0,1-1.27.32,2.42,2.42,0,0,1-1.32-.36,2.31,2.31,0,0,1-.89-1A3,3,0,0,1,95.61,45.54Zm.72,0A2.09,2.09,0,0,0,96.84,47a1.76,1.76,0,0,0,2.56,0,2.22,2.22,0,0,0,.51-1.56,2.76,2.76,0,0,0-.22-1.12,1.58,1.58,0,0,0-.63-.74,1.83,1.83,0,0,0-2.2.24A2.24,2.24,0,0,0,96.33,45.55Z" transform="translate(-2.84 0.06)"/><path class="cls-2" d="M101.51,48.09V42.85h.71L105,47V42.85h.66v5.24h-.71L102.17,44v4.11Z" transform="translate(-2.84 0.06)"/><path class="cls-2" d="M106.22,48.09l2-5.24H109l2.14,5.24h-.79l-.61-1.59h-2.19L107,48.09Zm1.51-2.15h1.78L109,44.49c-.17-.44-.29-.8-.37-1.09a7.08,7.08,0,0,1-.28,1Z" transform="translate(-2.84 0.06)"/><path class="cls-2" d="M111.65,48.09V42.85h.69v4.62h2.58v.62Z" transform="translate(-2.84 0.06)"/><path class="cls-2" d="M117.48,48.09V42.85h1l1.24,3.71c.11.35.19.61.25.78.06-.19.15-.47.28-.84l1.25-3.65h.93v5.24h-.67V43.71l-1.52,4.38h-.62l-1.52-4.46v4.46Z" transform="translate(-2.84 0.06)"/><path class="cls-2" d="M123,48.09l2-5.24h.74l2.14,5.24h-.78l-.62-1.59h-2.18l-.58,1.59Zm1.52-2.15h1.77l-.55-1.45c-.16-.44-.29-.8-.37-1.09a6,6,0,0,1-.28,1Z" transform="translate(-2.84 0.06)"/><path class="cls-2" d="M129.27,48.09V43.47h-1.73v-.62h4.15v.62H130v4.62Z" transform="translate(-2.84 0.06)"/><path class="cls-2" d="M132.42,48.09V42.85h3.78v.62h-3.09v1.61H136v.61h-2.9v1.78h3.22v.62Z" transform="translate(-2.84 0.06)"/><path class="cls-2" d="M141,46.25l.69.18a2.28,2.28,0,0,1-.78,1.3,2.17,2.17,0,0,1-1.39.45,2.46,2.46,0,0,1-1.37-.35,2.05,2.05,0,0,1-.81-1,3.69,3.69,0,0,1-.28-1.41A3,3,0,0,1,137.4,44a2.06,2.06,0,0,1,.89-.93,2.58,2.58,0,0,1,1.27-.32,2.2,2.2,0,0,1,1.32.4,2.14,2.14,0,0,1,.74,1.13l-.68.16a1.6,1.6,0,0,0-.53-.83,1.36,1.36,0,0,0-.87-.26,1.65,1.65,0,0,0-1,.29,1.52,1.52,0,0,0-.57.77,3.14,3.14,0,0,0-.16,1A3.26,3.26,0,0,0,138,46.6a1.41,1.41,0,0,0,.61.74,1.73,1.73,0,0,0,.89.25,1.5,1.5,0,0,0,1-.34A1.74,1.74,0,0,0,141,46.25Z" transform="translate(-2.84 0.06)"/><path class="cls-2" d="M142,48.09l2-5.24h.75l2.14,5.24h-.79l-.61-1.59H143.3l-.57,1.59Zm1.51-2.15h1.78l-.55-1.45c-.17-.44-.29-.8-.37-1.09a7.08,7.08,0,0,1-.28,1Z" transform="translate(-2.84 0.06)"/><path class="cls-2" d="M147.44,48.09V42.85h.71L150.9,47V42.85h.66v5.24h-.71L148.1,44v4.11Zm1-5.56a.77.77,0,0,1,.2-.59.67.67,0,0,1,.52-.22,1.46,1.46,0,0,1,.61.19.84.84,0,0,0,.33.11.24.24,0,0,0,.18-.06.46.46,0,0,0,.08-.25h.47a.91.91,0,0,1-.21.61.66.66,0,0,1-.49.2,1.3,1.3,0,0,1-.6-.2,1,1,0,0,0-.35-.13.23.23,0,0,0-.19.09.33.33,0,0,0-.08.25Z" transform="translate(-2.84 0.06)"/><path class="cls-2" d="M152.15,48.09l2-5.24h.75l2.14,5.24h-.79l-.61-1.59h-2.19l-.57,1.59Zm1.51-2.15h1.78l-.55-1.45c-.16-.44-.29-.8-.37-1.09a7.08,7.08,0,0,1-.28,1Z" transform="translate(-2.84 0.06)"/></g></svg>