<svg id="Capa_1" data-name="Capa 1" xmlns="http://www.w3.org/2000/svg" viewBox="0 0 61.05 48.12"><defs><style>.cls-1{opacity:0.7;}.cls-2{fill:#fff;}</style></defs><title>Amarilo</title><g class="cls-1"><path class="cls-2" d="M16.54,3.94H44.07V31.08H16.54ZM12.55,0V31.08h4V35H48.07V3.94h-4V0Z"/><path class="cls-2" d="M52.57,43.17a3.53,3.53,0,0,0,6,2.57,3.53,3.53,0,0,0,1-2.55,3.49,3.49,0,0,0-1-2.55,3.56,3.56,0,0,0-5,0,3.45,3.45,0,0,0-1,2.53m-1.44,0A4.66,4.66,0,0,1,52.6,39.7a4.85,4.85,0,0,1,3.52-1.44,5,5,0,0,1,4.93,5,4.65,4.65,0,0,1-1.46,3.47,5,5,0,0,1-6.85.16,4.68,4.68,0,0,1-1.61-3.69"/><path class="cls-2" d="M34.38,42.81l.63,0c1.35,0,2-.52,2-1.55s-.66-1.46-2-1.46h-.69v3Zm1.79,1.09L39.23,48H37.47l-2.83-3.89h-.26V48H33V38.44h1.86a4.17,4.17,0,0,1,2.71.71,2.59,2.59,0,0,1,.93,2.08A2.76,2.76,0,0,1,37.88,43a3.15,3.15,0,0,1-1.71.94"/><rect class="cls-2" x="40.81" y="38.44" width="1.41" height="9.51"/><path class="cls-2" d="M4.54,41.05l1.37,3.23H3.1Zm-.25-2.61L0,47.94H1.5l1-2.32H6.47l1,2.32H9l-4.14-9.5Z"/><path class="cls-2" d="M25.79,44.28l1.44-3.23,1.36,3.23Zm1.72-5.84H27l-4.29,9.5h1.5l1-2.32h3.95l1,2.32h1.53Z"/><polygon class="cls-2" points="45.99 46.5 45.99 38.43 44.56 38.43 44.56 47.95 50.97 47.95 50.97 46.5 45.99 46.5"/><polygon class="cls-2" points="19.76 38.43 19.25 38.43 15.89 45.11 12.65 38.43 12.14 38.43 10.1 47.94 11.73 47.94 12.86 42.2 15.61 47.95 16.13 47.95 18.97 42.2 19.98 47.94 21.6 47.94 19.76 38.43"/></g></svg>