<svg id="Capa_1" data-name="Capa 1" xmlns="http://www.w3.org/2000/svg" viewBox="0 0 239.8 45.68"><defs><style>.cls-1{fill:#2ad548;}.cls-2{fill:#fff;}</style></defs><title>Boton wa 1</title><path class="cls-1" d="M19.83,0H217A22.84,22.84,0,0,1,239.8,22.84v0A22.84,22.84,0,0,1,217,45.68H0a0,0,0,0,1,0,0V19.83A19.83,19.83,0,0,1,19.83,0Z"/><path class="cls-2" d="M14,35c.39-1.42.75-2.76,1.12-4.1.18-.68.39-1.36.54-2a.94.94,0,0,0-.07-.62A12.37,12.37,0,0,1,15,17.56a12.15,12.15,0,0,1,5.9-6.41,12,12,0,0,1,6.89-1.32,12.29,12.29,0,0,1,9.32,5.7,11.83,11.83,0,0,1,1.93,8,12.14,12.14,0,0,1-6.91,10,12.13,12.13,0,0,1-11.21,0,1.11,1.11,0,0,0-.72,0c-2,.49-3.91,1-5.87,1.52Zm3-3c1.2-.32,2.31-.6,3.42-.91a1.12,1.12,0,0,1,.94.12A10.37,10.37,0,0,0,34.54,29,10.54,10.54,0,0,0,35.8,17.37,10.37,10.37,0,0,0,25.05,12,10,10,0,0,0,17,18.51a10.13,10.13,0,0,0,.85,9.37,1.09,1.09,0,0,1,.12.75C17.65,29.75,17.33,30.85,17,32.07Z" transform="translate(0 0)"/><path class="cls-1" d="M17,32.07c.33-1.22.65-2.32.93-3.44a1.09,1.09,0,0,0-.12-.75A10.13,10.13,0,0,1,17,18.51,10,10,0,0,1,25.05,12,10.37,10.37,0,0,1,35.8,17.37,10.54,10.54,0,0,1,34.54,29a10.37,10.37,0,0,1-13.18,2.24,1.12,1.12,0,0,0-.94-.12C19.31,31.47,18.2,31.75,17,32.07Zm5.58-15.54a1.38,1.38,0,0,0-1.34.49,3.66,3.66,0,0,0-.45,4.47,13.06,13.06,0,0,0,7.82,6.64,3.69,3.69,0,0,0,3.54-.61,2.32,2.32,0,0,0,.81-2,.57.57,0,0,0-.28-.4c-.82-.42-1.67-.81-2.5-1.22a.53.53,0,0,0-.72.19c-.27.36-.57.7-.84,1.06a.64.64,0,0,1-.88.19,8.49,8.49,0,0,1-3.81-3.12c-.56-.82-.57-.81.06-1.54l.32-.42a.91.91,0,0,0,.11-1c-.3-.67-.58-1.36-.85-2C23.37,16.74,23.1,16.4,22.58,16.53Z" transform="translate(0 0)"/><path class="cls-2" d="M22.58,16.53c.52-.13.79.21,1,.69.27.68.55,1.37.85,2a.91.91,0,0,1-.11,1l-.32.42c-.63.73-.62.72-.06,1.54a8.49,8.49,0,0,0,3.81,3.12.64.64,0,0,0,.88-.19c.27-.36.57-.7.84-1.06a.53.53,0,0,1,.72-.19c.83.41,1.68.8,2.5,1.22a.57.57,0,0,1,.28.4,2.32,2.32,0,0,1-.81,2,3.69,3.69,0,0,1-3.54.61,13.06,13.06,0,0,1-7.82-6.64A3.66,3.66,0,0,1,21.24,17,1.38,1.38,0,0,1,22.58,16.53Z" transform="translate(0 0)"/><path class="cls-2" d="M50.88,22.28a3.56,3.56,0,0,1-.24,1.47,4.14,4.14,0,0,1-1,1.1,6.49,6.49,0,0,0-.89,1.06A1.92,1.92,0,0,0,48.4,27a1.5,1.5,0,0,0,.38,1.08,1.41,1.41,0,0,0,1.08.39,1.56,1.56,0,0,0,1-.33,1.22,1.22,0,0,0,.43-1H53l0,.05a2.4,2.4,0,0,1-.88,2,3.44,3.44,0,0,1-2.26.72,3.39,3.39,0,0,1-2.36-.77A2.73,2.73,0,0,1,46.65,27a3,3,0,0,1,.53-1.7,6.17,6.17,0,0,1,1.34-1.42,1.72,1.72,0,0,0,.51-.68,3,3,0,0,0,.11-.95Zm-1.77-3H50.9V21H49.11Z" transform="translate(0 0)"/><path class="cls-2" d="M62.08,23.66l0,.05a3.2,3.2,0,0,1-1,2.55,4,4,0,0,1-2.85,1,3.84,3.84,0,0,1-3-1.24,4.49,4.49,0,0,1-1.13-3.15v-2a4.48,4.48,0,0,1,1.12-3.15,3.75,3.75,0,0,1,2.93-1.24,4.18,4.18,0,0,1,2.9.94,3.19,3.19,0,0,1,1,2.58l0,0H60.4a2.17,2.17,0,0,0-.57-1.61,2.26,2.26,0,0,0-1.66-.55,2,2,0,0,0-1.69.84,3.56,3.56,0,0,0-.62,2.13v2A3.51,3.51,0,0,0,56.49,25a2,2,0,0,0,1.73.84,2.2,2.2,0,0,0,1.62-.56,2.16,2.16,0,0,0,.56-1.62Z" transform="translate(0 0)"/><path class="cls-2" d="M63.28,23.12a4.25,4.25,0,0,1,1-2.85,3.26,3.26,0,0,1,2.61-1.11,3.3,3.3,0,0,1,2.63,1.11,4.25,4.25,0,0,1,1,2.85v.15a4.24,4.24,0,0,1-1,2.86,3.65,3.65,0,0,1-5.24,0,4.25,4.25,0,0,1-1-2.86Zm1.75.15a3.42,3.42,0,0,0,.44,1.86,1.69,1.69,0,0,0,2.75,0,3.37,3.37,0,0,0,.46-1.86v-.15a3.31,3.31,0,0,0-.46-1.83,1.52,1.52,0,0,0-1.38-.73,1.49,1.49,0,0,0-1.36.73A3.4,3.4,0,0,0,65,23.12Z" transform="translate(0 0)"/><path class="cls-2" d="M73.54,19.31l.09,1a2.73,2.73,0,0,1,1-.86,2.81,2.81,0,0,1,1.33-.3,2.42,2.42,0,0,1,1.31.35,2.14,2.14,0,0,1,.82,1,2.64,2.64,0,0,1,1-1,2.5,2.5,0,0,1,1.38-.37,2.26,2.26,0,0,1,1.85.82,3.81,3.81,0,0,1,.68,2.47v4.64H81.16V22.44A2.25,2.25,0,0,0,80.82,21a1.25,1.25,0,0,0-1-.42,1.52,1.52,0,0,0-1,.3,1.85,1.85,0,0,0-.56.82c0,.07,0,.13,0,.18a.92.92,0,0,1,0,.16v5H76.55V22.44A2.29,2.29,0,0,0,76.2,21a1.25,1.25,0,0,0-1-.43,1.76,1.76,0,0,0-.9.21,1.43,1.43,0,0,0-.59.58v5.71H71.94V19.31Z" transform="translate(0 0)"/><path class="cls-2" d="M84.42,23.12a4.2,4.2,0,0,1,1-2.85A3.24,3.24,0,0,1,88,19.16a3.27,3.27,0,0,1,2.63,1.11,4.2,4.2,0,0,1,1,2.85v.15a4.19,4.19,0,0,1-1,2.86,3.64,3.64,0,0,1-5.23,0,4.21,4.21,0,0,1-1-2.86Zm1.75.15a3.41,3.41,0,0,0,.45,1.86,1.51,1.51,0,0,0,1.38.71,1.53,1.53,0,0,0,1.37-.71,3.46,3.46,0,0,0,.45-1.86v-.15a3.4,3.4,0,0,0-.45-1.83A1.55,1.55,0,0,0,88,20.56a1.5,1.5,0,0,0-1.36.73,3.4,3.4,0,0,0-.45,1.83Z" transform="translate(0 0)"/><path class="cls-2" d="M103.57,23.45a4.31,4.31,0,0,1-.8,2.74,2.63,2.63,0,0,1-2.22,1A2.72,2.72,0,0,1,99.38,27a2.46,2.46,0,0,1-.88-.7v3.78H96.76V19.31h1.47l.17,1a2.63,2.63,0,0,1,.9-.83,2.77,2.77,0,0,1,3.47.85,5.14,5.14,0,0,1,.8,3Zm-1.74-.15a3.8,3.8,0,0,0-.45-1.95,1.47,1.47,0,0,0-1.34-.76,1.66,1.66,0,0,0-1.54.89V25a1.61,1.61,0,0,0,.61.63,1.86,1.86,0,0,0,1,.22,1.5,1.5,0,0,0,1.33-.66,3.08,3.08,0,0,0,.44-1.73Z" transform="translate(0 0)"/><path class="cls-2" d="M104.77,23.12a4.25,4.25,0,0,1,1-2.85,3.65,3.65,0,0,1,5.24,0,4.25,4.25,0,0,1,1,2.85v.15a4.24,4.24,0,0,1-1,2.86,3.65,3.65,0,0,1-5.24,0,4.25,4.25,0,0,1-1-2.86Zm1.75.15a3.41,3.41,0,0,0,.45,1.86,1.51,1.51,0,0,0,1.38.71,1.54,1.54,0,0,0,1.37-.71,3.46,3.46,0,0,0,.45-1.86v-.15a3.4,3.4,0,0,0-.45-1.83,1.55,1.55,0,0,0-1.39-.73,1.5,1.5,0,0,0-1.36.73,3.4,3.4,0,0,0-.45,1.83Z" transform="translate(0 0)"/><path class="cls-2" d="M113.11,23.3a5.14,5.14,0,0,1,.8-3,2.58,2.58,0,0,1,2.24-1.14,2.42,2.42,0,0,1,2,1V15.87h1.75V27.09h-1.42l-.2-1a2.72,2.72,0,0,1-.91.85,2.54,2.54,0,0,1-1.23.29,2.64,2.64,0,0,1-2.23-1,4.37,4.37,0,0,1-.8-2.74Zm1.75.15a3.17,3.17,0,0,0,.41,1.72,1.46,1.46,0,0,0,1.32.64,1.64,1.64,0,0,0,1.56-.91V21.51a1.8,1.8,0,0,0-.63-.68,1.73,1.73,0,0,0-.92-.24,1.43,1.43,0,0,0-1.32.75,4,4,0,0,0-.42,2Z" transform="translate(0 0)"/><path class="cls-2" d="M125.08,27.24a3.39,3.39,0,0,1-2.67-1.08,4,4,0,0,1-1-2.78v-.29a4.16,4.16,0,0,1,1-2.82,3.13,3.13,0,0,1,2.48-1.11,2.88,2.88,0,0,1,2.37,1,3.89,3.89,0,0,1,.81,2.58v.95h-4.81l0,0a2.5,2.5,0,0,0,.51,1.55,1.7,1.7,0,0,0,1.43.6,4.11,4.11,0,0,0,1.23-.17,3.57,3.57,0,0,0,1-.5l.57,1.15a4,4,0,0,1-1.18.65A4.91,4.91,0,0,1,125.08,27.24Zm-.19-6.68a1.33,1.33,0,0,0-1.09.5,2.32,2.32,0,0,0-.51,1.28v0h3v-.14A1.91,1.91,0,0,0,126,21,1.29,1.29,0,0,0,124.89,20.56Z" transform="translate(0 0)"/><path class="cls-2" d="M131.08,19.31l.09,1a2.64,2.64,0,0,1,2.29-1.16,2.39,2.39,0,0,1,1.31.35,2.08,2.08,0,0,1,.82,1,2.72,2.72,0,0,1,.95-1,2.5,2.5,0,0,1,1.38-.37,2.26,2.26,0,0,1,1.85.82,3.81,3.81,0,0,1,.68,2.47v4.64H138.7V22.44a2.25,2.25,0,0,0-.34-1.43,1.24,1.24,0,0,0-1-.42,1.5,1.5,0,0,0-1,.3,1.7,1.7,0,0,0-.56.82v.18a.92.92,0,0,1,0,.16v5h-1.75V22.44a2.3,2.3,0,0,0-.34-1.42,1.28,1.28,0,0,0-1-.43,1.81,1.81,0,0,0-.9.21,1.49,1.49,0,0,0-.59.58v5.71h-1.75V19.31Z" transform="translate(0 0)"/><path class="cls-2" d="M142,23.12a4.2,4.2,0,0,1,.95-2.85,3.64,3.64,0,0,1,5.23,0,4.2,4.2,0,0,1,1,2.85v.15a4.19,4.19,0,0,1-1,2.86,3.24,3.24,0,0,1-2.61,1.11,3.28,3.28,0,0,1-2.62-1.11,4.2,4.2,0,0,1-.95-2.86Zm1.74.15a3.41,3.41,0,0,0,.45,1.86,1.69,1.69,0,0,0,2.75,0,3.46,3.46,0,0,0,.46-1.86v-.15a3.4,3.4,0,0,0-.46-1.83,1.53,1.53,0,0,0-1.38-.73,1.52,1.52,0,0,0-1.37.73,3.4,3.4,0,0,0-.45,1.83Z" transform="translate(0 0)"/><path class="cls-2" d="M155,25a.81.81,0,0,0-.34-.67,3.69,3.69,0,0,0-1.29-.47,5.22,5.22,0,0,1-2.1-.83,1.74,1.74,0,0,1-.73-1.46,2.12,2.12,0,0,1,.83-1.67,3.24,3.24,0,0,1,2.18-.7,3.38,3.38,0,0,1,2.25.72,2,2,0,0,1,.81,1.72v0h-1.68a1.08,1.08,0,0,0-.37-.82,1.66,1.66,0,0,0-2-.06.89.89,0,0,0-.33.7.76.76,0,0,0,.31.64,3.43,3.43,0,0,0,1.27.42,5.23,5.23,0,0,1,2.15.84,1.79,1.79,0,0,1,.73,1.5,2.07,2.07,0,0,1-.86,1.71,3.69,3.69,0,0,1-2.29.67,3.46,3.46,0,0,1-2.39-.78,2.18,2.18,0,0,1-.84-1.78l0-.05H152a1.2,1.2,0,0,0,.49,1,2,2,0,0,0,1.12.31,1.72,1.72,0,0,0,1-.27A.82.82,0,0,0,155,25Z" transform="translate(0 0)"/><path class="cls-2" d="M166.64,27.09c-.06-.2-.11-.39-.15-.58a3.6,3.6,0,0,1-.08-.56,3.1,3.1,0,0,1-.95.92,2.47,2.47,0,0,1-1.31.37,2.6,2.6,0,0,1-1.87-.63,2.29,2.29,0,0,1-.65-1.72,2,2,0,0,1,.89-1.76,4.39,4.39,0,0,1,2.51-.62h1.36v-.69a1.28,1.28,0,0,0-.35-.95,1.45,1.45,0,0,0-1-.35,1.49,1.49,0,0,0-.95.29.89.89,0,0,0-.35.73H162v0a1.94,1.94,0,0,1,.83-1.64,3.5,3.5,0,0,1,2.27-.71,3.3,3.3,0,0,1,2.19.69,2.42,2.42,0,0,1,.84,2V25.3a6.88,6.88,0,0,0,.06.92,6.87,6.87,0,0,0,.21.87Zm-2.13-1.26a2.19,2.19,0,0,0,1.18-.33,1.65,1.65,0,0,0,.7-.75V23.6H165a1.72,1.72,0,0,0-1.19.38,1.12,1.12,0,0,0-.43.88.91.91,0,0,0,.29.71A1.18,1.18,0,0,0,164.51,25.83Z" transform="translate(0 0)"/><path class="cls-2" d="M172.44,24l.17.78h0l1.71-5.43h1.91l-3.22,9a4,4,0,0,1-.87,1.39,2.08,2.08,0,0,1-1.59.58,2.58,2.58,0,0,1-.46-.05,3.39,3.39,0,0,1-.48-.1l.19-1.35.27,0,.26,0a1,1,0,0,0,.76-.33,2.64,2.64,0,0,0,.46-.74l.29-.71-2.83-7.68H171Z" transform="translate(0 0)"/><path class="cls-2" d="M182.17,25.94a2.65,2.65,0,0,1-.92,1,2.54,2.54,0,0,1-1.3.34,2.44,2.44,0,0,1-2-.83,3.86,3.86,0,0,1-.7-2.55V19.31H179v4.56a2.59,2.59,0,0,0,.32,1.53,1.21,1.21,0,0,0,1,.41,2.28,2.28,0,0,0,1.06-.22,1.64,1.64,0,0,0,.67-.66V19.31h1.75v7.78h-1.51Z" transform="translate(0 0)"/><path class="cls-2" d="M185.34,23.3a5.07,5.07,0,0,1,.8-3,2.58,2.58,0,0,1,2.24-1.14,2.44,2.44,0,0,1,1.13.26,2.52,2.52,0,0,1,.87.73V15.87h1.75V27.09h-1.42l-.21-1a2.63,2.63,0,0,1-.91.85,2.53,2.53,0,0,1-1.22.29,2.63,2.63,0,0,1-2.23-1,4.31,4.31,0,0,1-.8-2.74Zm1.75.15a3.08,3.08,0,0,0,.41,1.72,1.43,1.43,0,0,0,1.31.64,1.84,1.84,0,0,0,.94-.23,1.8,1.8,0,0,0,.63-.68V21.51a1.88,1.88,0,0,0-.63-.68,1.73,1.73,0,0,0-.92-.24,1.41,1.41,0,0,0-1.32.75,4,4,0,0,0-.42,2Z" transform="translate(0 0)"/><path class="cls-2" d="M198.69,27.09c-.06-.2-.11-.39-.15-.58a3.63,3.63,0,0,1-.09-.56,3.06,3.06,0,0,1-.94.92,2.47,2.47,0,0,1-1.32.37,2.55,2.55,0,0,1-1.86-.63,2.29,2.29,0,0,1-.65-1.72,2,2,0,0,1,.89-1.76,4.37,4.37,0,0,1,2.51-.62h1.36v-.69a1.24,1.24,0,0,0-.36-.95,1.41,1.41,0,0,0-1-.35,1.48,1.48,0,0,0-1,.29.89.89,0,0,0-.35.73h-1.68v0a2,2,0,0,1,.82-1.64,3.53,3.53,0,0,1,2.28-.71,3.32,3.32,0,0,1,2.19.69,2.42,2.42,0,0,1,.84,2V25.3a6.88,6.88,0,0,0,.06.92,4.59,4.59,0,0,0,.21.87Zm-2.14-1.26a2.2,2.2,0,0,0,1.19-.33,1.71,1.71,0,0,0,.7-.75V23.6h-1.39a1.7,1.7,0,0,0-1.19.38,1.12,1.12,0,0,0-.43.88.88.88,0,0,0,.29.71A1.17,1.17,0,0,0,196.55,25.83Z" transform="translate(0 0)"/><path class="cls-2" d="M205.89,20.88l-.75,0a1.51,1.51,0,0,0-.85.22,1.32,1.32,0,0,0-.53.61v5.41H202V19.31h1.6l.11,1.12a2.61,2.61,0,0,1,.76-.93,1.75,1.75,0,0,1,1.07-.34,1.29,1.29,0,0,1,.29,0,1,1,0,0,1,.26.06Z" transform="translate(0 0)"/><path class="cls-2" d="M209.54,17.41v1.9h1.4V20.6h-1.4v4.3a1,1,0,0,0,.21.69.77.77,0,0,0,.55.2l.28,0,.26-.07L211,27a2.35,2.35,0,0,1-.53.19,3.3,3.3,0,0,1-.64.07,2,2,0,0,1-1.51-.57,2.44,2.44,0,0,1-.55-1.77V20.6h-1.19V19.31h1.19v-1.9Z" transform="translate(0 0)"/><path class="cls-2" d="M215.64,27.24A3.38,3.38,0,0,1,213,26.16a4,4,0,0,1-1-2.78v-.29a4.16,4.16,0,0,1,1-2.82,3.13,3.13,0,0,1,2.48-1.11,2.9,2.9,0,0,1,2.37,1,3.89,3.89,0,0,1,.8,2.58v.95h-4.81v0a2.56,2.56,0,0,0,.5,1.55,1.73,1.73,0,0,0,1.43.6,4.13,4.13,0,0,0,1.24-.17,3.38,3.38,0,0,0,1-.5l.57,1.15a3.84,3.84,0,0,1-1.18.65A4.87,4.87,0,0,1,215.64,27.24Zm-.18-6.68a1.37,1.37,0,0,0-1.1.5,2.48,2.48,0,0,0-.51,1.28l0,0h3v-.14a2,2,0,0,0-.35-1.21A1.29,1.29,0,0,0,215.46,20.56Z" transform="translate(0 0)"/><path class="cls-2" d="M221.58,24.12a3.49,3.49,0,0,1,.23-1.47,4.58,4.58,0,0,1,1-1.11,6.6,6.6,0,0,0,.89-1,2,2,0,0,0,.33-1.11,1.5,1.5,0,0,0-.38-1.08,1.42,1.42,0,0,0-1.07-.38,1.59,1.59,0,0,0-1,.32,1.15,1.15,0,0,0-.42,1h-1.68l0,0a2.38,2.38,0,0,1,.86-2,3.47,3.47,0,0,1,2.28-.71,3.33,3.33,0,0,1,2.35.77,2.74,2.74,0,0,1,.84,2.13,3,3,0,0,1-.52,1.69,6.67,6.67,0,0,1-1.34,1.43,1.7,1.7,0,0,0-.51.68,3.29,3.29,0,0,0-.11.95Zm1.77,3h-1.78V25.41h1.78Z" transform="translate(0 0)"/></svg>