<svg id="Capa_1" data-name="Capa 1" xmlns="http://www.w3.org/2000/svg" viewBox="0 0 121.72 111.08"><defs><style>.cls-1{fill:#fff;}</style></defs><title>Logo lateral</title><path class="cls-1" d="M44.11,86c-.24,1.36-.43,2.52-.65,3.68-.18.92-.24.94-1.16.53L43,86.37,34.5,92.16a6.6,6.6,0,0,1-.23-1.24c0-4.77,0-9.53,0-14.29v-.74c3.38-1.35,6.7-2.7,10-4a1.28,1.28,0,0,0,.94-1.24A146.8,146.8,0,0,0,46,50.44a69.33,69.33,0,0,0-2.28-16.2,2.79,2.79,0,0,1-.1-.39,1.36,1.36,0,0,1,0-.27L58.26,30.8l0-.18C46.3,32.15,34.66,35,23.06,38.17a2.53,2.53,0,0,1,.22-.13c4.35-1.27,8.68-2.61,13-3.8,4.17-1.14,8.38-2.17,12.59-3.19,2.86-.7,5.74-1.31,8.62-1.92.54-.12.51-.42.42-.78Q56.79,24,55.6,19.64l-.23-.81,7.71-1.26a19.55,19.55,0,0,1-.12-5c.16,0,.33,0,.5,0,1.15,0,1,.19,1.25-1A44.1,44.1,0,0,0,65.78,1.33c0-.44,0-.89,0-1.33.3,2.36.55,4.73.91,7.09.24,1.58.62,3.15.94,4.72.11.56.38.87,1,.76a4.93,4.93,0,0,1,.77,0v4L73.12,16a4.92,4.92,0,0,1,1-.18c.83,0,1-.42,1.15-1.12.14-.85.37-1.69.58-2.6l1,.22-.69,3.16,5.61-.89.13,1c-1.44.24-2.86.49-4.28.7-1.66.25-1.68.24-2,1.88-.47,2.54-.91,5.09-1.36,7.63,0,.09,0,.17,0,.37.9-.12,1.78-.24,2.65-.33,2.71-.31,5.41-.68,8.12-.88,3.65-.26,7.32-.39,11-.56,1,0,1.29.14,1.56,1.09A23.54,23.54,0,0,1,98.07,28c2.31-2.32,4.59-4.76,7-7s5.06-4.31,7.57-6.42a222.66,222.66,0,0,0-28.22,5.83l-.6-2a214.17,214.17,0,0,1,37.86-6.93c-.59.34-1.17.7-1.77,1a75,75,0,0,0-14.16,10.64,81.1,81.1,0,0,0-7.87,8.5,4,4,0,0,0-.65,1.43c-.82,2.76-1.61,5.52-2.4,8.28l-.23,0L93.22,38A78,78,0,0,0,86.8,49.76a74.26,74.26,0,0,0-4.22,12.57l-2.07-.49c.53-1.83,1-3.61,1.54-5.37a75.39,75.39,0,0,1,6-14c1-1.9,2.23-3.72,3.4-5.54.31-.49.32-.76-.1-1.18a16.9,16.9,0,0,0-6.52-4,39,39,0,0,0-10.64-1.95c-.62-.05-.58.38-.62.72-.25,2-.54,4-.69,6-.39,5-.86,10.07-1,15.11-.14,4.85,0,9.71.17,14.55.16,4,.59,8,1,11.95.2,2,.59,3.91,1,5.89C81.61,70.51,88.9,56.89,94.68,42.45c.1.73.25,1.46.29,2.2a29.22,29.22,0,0,1-1.7,10.92,83,83,0,0,1-10,19.72q-3.92,5.91-8.2,11.58c-2.5,3.31-5.22,6.45-7.84,9.66a1.35,1.35,0,0,0-.16.29l-.18-.14c1.61-2.78,3.21-5.57,4.9-8.51l-.75.29a24.75,24.75,0,0,0,1.86-2.31c.62-1-.15-2-.12-3.11L65.1,88.26,65,88c.18-.13.35-.28.54-.41,2.2-1.5,4.38-3,6.6-4.48a1,1,0,0,0,.48-1.21c-.2-1-.34-2-.53-3.15L56.49,89.39l-.14-.15a4.57,4.57,0,0,1,.45-.43l12.06-8.23c.91-.61,1.8-1.24,2.72-1.84a.75.75,0,0,0,.39-.82c-.14-1-.23-2.09-.36-3.3l-22,15s-.25-.12-.44-.23a2.5,2.5,0,0,1-.25-.21c.73-.68.25-1.2-.17-1.78-1.27-1.78-2.51-3.58-3.87-5.52-.19,1.07-.33,2-.54,2.87a1.68,1.68,0,0,0,.35,1.53c.86,1.14,1.65,2.33,2.46,3.51a5.33,5.33,0,0,1,.31.51l-.21.14Zm26.65-29.4L63.48,61.7c-1.41,1-2.78,2-4.25,2.93a1.6,1.6,0,0,0-.8,1.18c-.54,2.32-1.1,4.64-1.66,7-.17.67-.39,1.32-.63,2.14.27-.17.39-.23.49-.31l4.49-3c3.13-2.14,6.27-4.27,9.4-6.42.15-.1.35-.28.35-.44,0-1.28,0-2.56,0-3.85l-.21,0L67.48,63,64.33,65.1l-3.21,2.19L58,69.37l-.15-.23.73-.52,11.68-8c.19-.14.44-.38.45-.58C70.78,59,70.76,57.86,70.76,56.59ZM50.55,88.52l.36-.21C57.33,84,63.74,79.57,70.19,75.25c1-.66,1.64-1.28,1.23-2.53a1.76,1.76,0,0,1,0-.4c-.07-.79-.14-1.59-.21-2.45a4.34,4.34,0,0,0-.48.27Q62.33,76,53.94,81.91a2.25,2.25,0,0,0-.69.86C52.34,84.65,51.47,86.56,50.55,88.52ZM70.93,65.24c-.43.28-.71.45-1,.64-4.08,2.78-8.13,5.59-12.24,8.32a4.46,4.46,0,0,0-2.36,3.09,2.59,2.59,0,0,1-.2.57c-.44,1.2-.88,2.41-1.39,3.78l1.76-1.22,15.23-10.7c.17-.11.38-.32.38-.49C71.09,68,71,66.66,70.93,65.24ZM44.81,34.52a10.58,10.58,0,0,0,.89,2.19C49.59,42.35,53.53,48,57.46,53.56L59,55.7c.1-1.28.15-2.34.3-3.4a2.17,2.17,0,0,0-.4-1.67q-5.26-7.47-10.49-15c-1.26-1.81-1.25-1.81-3.39-1.27ZM58.3,59.7l.17,0c.12-1,.27-1.93.34-2.9a1.73,1.73,0,0,0-.23-1q-5.92-8.54-11.89-17l-1.15-1.64c.27,1.59.49,3,.76,4.4a4.84,4.84,0,0,0,.54,1.81c2.51,3.67,5.07,7.3,7.62,10.94ZM74.89,16.63c-.4.22-.62.32-.81.45L59.64,26.92c-.92.63-.93.7-.45,1.83,1.25-.23,2.52-.45,3.79-.72a4.56,4.56,0,0,0,1.56-.52c3.08-2.06,6.13-4.15,9.19-6.25a.81.81,0,0,0,.35-.43C74.36,19.5,74.6,18.17,74.89,16.63Zm-15.67,34,.17,0c0-1.55.07-3.1.08-4.65a1.08,1.08,0,0,0-.23-.53L51,33.61c-.1-.13-.32-.3-.46-.28-1,.17-1.94.37-3,.58Zm-.43-23.48L73.65,17a2.07,2.07,0,0,0-.31,0c-2,.33-4,.65-6.07,1a4.76,4.76,0,0,0-1.8.43C63,20,60.62,21.65,58.21,23.31a.56.56,0,0,0-.23.46C58.22,24.85,58.5,25.93,58.79,27.13ZM72.47,30.9a1.15,1.15,0,0,0-.24.06l-11.55,7.9c-.12.08-.26.23-.26.35,0,1.23.08,2.46.13,3.74l.29-.15,10.83-7.39A.78.78,0,0,0,72,35C72.18,33.62,72.32,32.28,72.47,30.9Zm-12,20.3c3.53-2.35,7-4.66,10.46-7a.62.62,0,0,0,.27-.42c.12-1.42.22-2.84.33-4.4L60.48,46.93ZM46.72,43.73l-.11,0c.1,1.33.19,2.67.31,4a1.48,1.48,0,0,0,.25.67q4.65,6.68,9.33,13.34l1.31,1.83c.17-1,.28-1.78.46-2.58A1.42,1.42,0,0,0,58,59.78Q54,54.11,50,48.42Zm24,8.87-.62.38c-3.27,2.23-6.51,4.47-9.8,6.66a2.15,2.15,0,0,0-1.09,1.69c-.11,1.06-.33,2.12-.52,3.26a1.53,1.53,0,0,0,.29-.14q5.7-4,11.4-8a.77.77,0,0,0,.33-.46C70.77,54.9,70.75,53.79,70.75,52.6ZM57.06,67.31c.22-1,.43-1.87.56-2.72a1.37,1.37,0,0,0-.18-.91q-5-7.2-10-14.38a2.67,2.67,0,0,0-.27-.29c0,1.17,0,2.33,0,3.49a2.17,2.17,0,0,0,.35,1.11c1.41,2.06,2.85,4.1,4.29,6.15Zm-.91,3.76c.25-1,.43-1.85.68-2.67a1.29,1.29,0,0,0-.24-1.24q-4.22-6-8.4-12c-.3-.43-.61-.85-1-1.42,0,2.35-.56,4.61,1.31,6.38a7.17,7.17,0,0,1,.78,1.09C51.51,64.45,53.77,67.68,56.15,71.07ZM47.24,58.91h-.16c-.06,1.38-.14,2.76-.18,4.14a1.18,1.18,0,0,0,.3.64l5.67,8.13L55,74.91c.3-1,.54-1.9.83-2.77a1.23,1.23,0,0,0-.21-1.23c-1.3-1.82-2.56-3.66-3.84-5.49Zm12.27.82c.11,0,.16,0,.19,0Q65.08,56,70.47,52.36a.78.78,0,0,0,.34-.52c0-1.06,0-2.12,0-3.22l-.57.36c-3.25,2.21-6.48,4.42-9.74,6.61a1.22,1.22,0,0,0-.63,1C59.79,57.61,59.64,58.65,59.51,59.73ZM60,55.49a1,1,0,0,0,.27-.1l10.34-7c.14-.1.33-.25.33-.38,0-1.12,0-2.24,0-3.35,0,0,0,0-.06,0Q65.79,48,60.67,51.45a.83.83,0,0,0-.34.52C60.21,53.12,60.13,54.27,60,55.49ZM72.69,30l-.17-.19c-1.2,0-2.4,0-3.6,0a2.33,2.33,0,0,0-1.18.36c-2.44,1.62-4.85,3.27-7.26,4.93-.15.1-.36.29-.35.43,0,1,.13,2,.21,3.09a2,2,0,0,0,.34-.13c3.87-2.64,7.75-5.27,11.61-7.93C72.47,30.41,72.56,30.15,72.69,30Zm-.76,5.73c-.19.1-.29.14-.38.2L60.89,43.15c-.13.08-.31.21-.31.32,0,1,0,2,0,3,3.64-2.48,7.16-4.87,10.66-7.29a1.12,1.12,0,0,0,.41-.7C71.76,37.62,71.82,36.71,71.93,35.68ZM51.09,33.22l8.3,11.84c0-1.65,0-3.21,0-4.77a1.13,1.13,0,0,0-.22-.61Q56.84,36.32,54.47,33a.87.87,0,0,0-.7-.25C52.91,32.86,52.06,33,51.09,33.22ZM47,64l-.15,0c-.08,1.1-.19,2.2-.22,3.3a1.7,1.7,0,0,0,.28,1c1.72,2.5,3.47,5,5.21,7.46.57.82,1.15,1.63,1.8,2.55.31-.91.57-1.7.86-2.48a1,1,0,0,0-.16-1c-2-2.9-4.06-5.81-6.09-8.71ZM44.83,74.35a1.11,1.11,0,0,0-.28.1l-9.18,6.26a.6.6,0,0,0-.27.35c0,1,0,2.07,0,3.11a1,1,0,0,0,.22,0c2.89-2,5.79-3.94,8.67-5.93a1,1,0,0,0,.41-.64C44.56,76.51,44.68,75.45,44.83,74.35Zm1.67-6.06c-.12,1.24-.25,2.28-.3,3.33a1.84,1.84,0,0,0,.29,1c1.46,2.13,3,4.24,4.44,6.36l1.75,2.48c.32-.85.58-1.58.88-2.29a1,1,0,0,0-.13-1c-1.43-2-2.84-4-4.26-6.08Zm4.72,16.5c.4-.92.79-1.72,1.1-2.54a1,1,0,0,0-.11-.83c-1.6-2.34-3.24-4.65-4.86-7l-1.26-1.8c-.17,1.31-.34,2.41-.43,3.52a1.76,1.76,0,0,0,.25,1c.84,1.27,1.73,2.5,2.6,3.74S50.27,83.45,51.22,84.79ZM35.07,91.36l.64-.4c1.89-1.29,3.74-2.66,5.7-3.85a3.49,3.49,0,0,0,2-3.15,10.52,10.52,0,0,1,.26-1.69,1.39,1.39,0,0,0-.25,0q-4,2.75-8.06,5.5a.71.71,0,0,0-.28.48C35.06,89.28,35.07,90.25,35.07,91.36Zm9.17-12.83a.85.85,0,0,0-.21,0q-4.31,2.91-8.59,5.84c-.15.1-.34.29-.34.44,0,.88,0,1.76,0,2.64.14,0,.19,0,.22,0l8.24-5.63a.76.76,0,0,0,.32-.47C44,80.46,44.11,79.53,44.24,78.53ZM45,72.59c-.07,0-.12,0-.15,0q-4.69,1.86-9.38,3.75a.57.57,0,0,0-.33.35c0,1.24,0,2.47,0,3.82l.67-.44c2.79-1.9,5.56-3.82,8.37-5.67A1.59,1.59,0,0,0,45,72.59ZM49.57,88c.46-.92.82-1.71,1.24-2.47a.77.77,0,0,0-.08-.95c-1.4-2-2.77-3.94-4.15-5.91-.32-.47-.66-.92-1.09-1.52a11.68,11.68,0,0,1-.28,1.94,4.25,4.25,0,0,0,1,4.17C47.38,84.77,48.4,86.37,49.57,88ZM65.32,27.39l.06.17c.19,0,.39,0,.58-.08,1.91-.32,3.82-.67,5.73-1,1.42-.22,1.45-.2,1.69-1.56.19-1.12.37-2.24.57-3.47ZM67.41,30c-.14-.1-.18-.14-.21-.14-1.91.13-3.83.18-5.72.42a5.19,5.19,0,0,0-1.78,1c-.09.06-.11.29-.09.43.13,1.07.28,2.14.44,3.32Zm-12.85,2.6,4.66,6.64.18-.07-.79-7.34Zm10.07-14,0-.16-7.87,1.28,1.07,3.53Z"/><path class="cls-1" d="M0,33.81a37.89,37.89,0,0,1,7.7-3.94,128.59,128.59,0,0,1,21-5.93c6.06-1.2,12.16-2.18,18.24-3.26l.7-.11.33,2c-14,2.17-27.88,4.64-41.1,9.91a37.22,37.22,0,0,1,11.61,7.07,96.58,96.58,0,0,1,9.75,9.55c4.56,5,8.7,10.38,12.73,15.82.25.34.47.7.73,1.1L40,67.19c-1.79-2.38-3.48-4.74-5.27-7-5.47-7-11.23-13.68-18.08-19.36a33.74,33.74,0,0,0-9.63-6A15.17,15.17,0,0,0,2.5,34Z"/><path class="cls-1" d="M54.31,97.11l1.53-1.4,12.44,11.83A35.82,35.82,0,0,1,89,89.53l.54,2A33.72,33.72,0,0,0,69,111.08Z"/></svg>